<?xml version="1.0" encoding="UTF-8"?>
<svg id="Calque_2" data-name="Calque 2" xmlns="http://www.w3.org/2000/svg" viewBox="0 0 376.88 337.32">
  <defs>
    <style>
      .cls-1 {
        fill: #294351;
      }

      .cls-1, .cls-2 {
        stroke-width: 0px;
      }

      .cls-2 {
        fill: #4974f3;
      }
    </style>
  </defs>
  <g id="Calque_1-2" data-name="Calque 1">
    <g>
      <path class="cls-2" d="m265.73,145.51c-1.39,0-2.79-.21-4.16-.63-3.56-1.11-6.48-3.53-8.22-6.83-1.74-3.3-2.08-7.08-.98-10.64,2.28-7.35,10.12-11.48,17.47-9.2,7.35,2.28,11.48,10.12,9.2,17.47h0c-1.1,3.56-3.53,6.48-6.83,8.22-2.03,1.07-4.25,1.61-6.49,1.61Zm-.01-22.27c-3.54,0-6.82,2.28-7.93,5.84-.66,2.12-.45,4.36.58,6.32,1.03,1.96,2.77,3.4,4.88,4.06,2.12.66,4.36.45,6.32-.58,1.96-1.03,3.4-2.77,4.06-4.88h0c1.36-4.37-1.09-9.02-5.46-10.38-.82-.25-1.64-.37-2.45-.37Z"/>
      <path class="cls-2" d="m13.96,230.12c-7.57,0-13.81-6.08-13.96-13.68-.08-3.73,1.31-7.26,3.89-9.95,2.58-2.69,6.06-4.21,9.79-4.29,3.71-.08,7.26,1.31,9.95,3.89,2.69,2.58,4.21,6.06,4.29,9.79.16,7.7-5.98,14.09-13.68,14.24-.09,0-.19,0-.28,0Zm0-22.26c-.06,0-.11,0-.17,0-2.22.04-4.28.95-5.81,2.55s-2.36,3.7-2.31,5.91c.09,4.57,3.87,8.21,8.46,8.13,4.57-.09,8.22-3.89,8.12-8.46h0c-.04-2.22-.95-4.28-2.55-5.82-1.56-1.5-3.59-2.31-5.74-2.31Z"/>
      <path class="cls-2" d="m236.51,25.7c-.11,0-.23,0-.34,0-4.04-.19-7.18-3.63-7-7.67.19-4.04,3.59-7.19,7.67-7,1.96.09,3.77.94,5.09,2.39,1.32,1.45,2,3.33,1.91,5.29h0c-.18,3.93-3.44,7.01-7.33,7.01Zm0-9.02c-.89,0-1.63.7-1.67,1.6-.04.92.67,1.71,1.59,1.75.94.03,1.71-.67,1.75-1.6.04-.92-.67-1.71-1.59-1.75-.03,0-.05,0-.08,0Z"/>
      <circle class="cls-2" cx="334.55" cy="157.92" r="5.91"/>
      <circle class="cls-2" cx="19.87" cy="87.17" r="5.91"/>
      <circle class="cls-2" cx="260.67" cy="90.4" r="5.91"/>
      <circle class="cls-2" cx="69.06" cy="157.92" r="5.91"/>
      <path class="cls-2" d="m128.33,82.23c-.13,0-.27,0-.41,0-2.33-.11-4.48-1.11-6.06-2.84-1.57-1.72-2.38-3.96-2.27-6.29.11-2.33,1.11-4.48,2.84-6.06,1.73-1.57,3.97-2.38,6.29-2.27,2.33.11,4.48,1.12,6.06,2.84,1.57,1.72,2.38,3.96,2.27,6.29-.21,4.68-4.09,8.34-8.73,8.34Zm0-11.81c-.77,0-1.5.28-2.07.8-.61.55-.96,1.31-1,2.13-.04.82.25,1.6.8,2.21s1.31.96,2.13,1c1.69.07,3.13-1.24,3.21-2.93.04-.82-.25-1.6-.8-2.21-.55-.61-1.31-.96-2.13-1-.05,0-.1,0-.14,0Z"/>
      <path class="cls-2" d="m189.22,90.3c-.3,0-.61,0-.92-.02-5.22-.24-10.03-2.5-13.55-6.35-3.52-3.86-5.33-8.86-5.09-14.08.24-5.22,2.5-10.03,6.35-13.55,3.86-3.52,8.86-5.33,14.08-5.09,10.77.49,19.13,9.66,18.64,20.43h0c-.24,5.22-2.5,10.03-6.36,13.55-3.63,3.31-8.28,5.11-13.16,5.11Zm-.04-33.45c-3.47,0-6.77,1.28-9.35,3.63-2.74,2.5-4.34,5.92-4.51,9.62-.17,3.71,1.11,7.26,3.61,10,2.5,2.74,5.92,4.34,9.62,4.51,3.71.17,7.26-1.11,10-3.61,2.74-2.5,4.34-5.92,4.51-9.62.35-7.65-5.59-14.16-13.24-14.51-.22,0-.43-.01-.65-.01Z"/>
      <path class="cls-2" d="m78.27,113.45c-.23,0-.45,0-.68-.02-8.02-.37-14.24-7.19-13.87-15.21.18-3.88,1.86-7.47,4.73-10.09,2.87-2.62,6.59-3.97,10.48-3.79,3.88.18,7.47,1.86,10.09,4.73,2.62,2.87,3.96,6.59,3.79,10.48h0c-.18,3.88-1.86,7.47-4.73,10.09-2.7,2.47-6.16,3.8-9.79,3.8Zm-.03-23.44c-2.22,0-4.33.82-5.98,2.32-1.75,1.6-2.78,3.79-2.89,6.16-.22,4.89,3.58,9.06,8.47,9.28,2.37.11,4.64-.71,6.4-2.31,1.75-1.6,2.78-3.79,2.89-6.16h0c.11-2.37-.71-4.64-2.31-6.4-1.6-1.75-3.79-2.78-6.16-2.89-.14,0-.28,0-.42,0Z"/>
      <circle class="cls-2" cx="253.71" cy="242.19" r="6.49"/>
      <path class="cls-1" d="m199.54,268.47h-69.32c-1.43,0-2.63-1.06-2.81-2.48-.03-.2-2.54-20.22-3.86-28.38-1.95-12.07-9.23-19.67-9.3-19.75-.08-.08-.16-.17-.23-.26-12.44-13.08-19.29-30.21-19.29-48.25,0-38.63,31.42-70.05,70.05-70.05s70.05,31.43,70.05,70.05c0,17.78-6.65,34.66-18.75,47.67-.13.31-.33.6-.57.85-.07.07-7.37,7.76-9.31,19.75-1.32,8.16-3.83,28.18-3.86,28.38-.18,1.42-1.38,2.48-2.81,2.48Zm-66.82-5.67h64.32c.72-5.67,2.5-19.48,3.57-26.1,1.86-11.47,7.86-19.36,10.05-21.92.13-.33.33-.64.58-.91,11.55-12.05,17.92-27.87,17.92-44.54,0-35.5-28.88-64.38-64.38-64.38s-64.38,28.88-64.38,64.38c0,16.69,6.37,32.52,17.95,44.57.08.09.16.18.23.28,1.49,1.64,8.53,9.91,10.57,22.51,1.07,6.62,2.85,20.43,3.57,26.1Z"/>
      <g id="uuid-aacaa3a3-55ba-4c75-814e-882655a0da83">
        <g>
          <path class="cls-2" d="m209.97,170.53c0-12.11-19.85-21.63-45.18-21.63-8.02,0-15.46.96-21.95,2.64,3.31-14.36,10.87-24.66,19.42-24.66,3.42,0,6.81,1.71,9.87,4.85l-5.42,3.92c-.64.46-.78,1.35-.32,2,.14.21.36.36.57.46l16,7.16c.71.32,1.57,0,1.89-.71.11-.21.14-.46.11-.71l-1.82-17.42c-.07-.78-.78-1.35-1.57-1.28-.25,0-.5.11-.68.25l-5.2,3.78c-3.99-4.28-8.59-6.63-13.43-6.63-11.44,0-20.88,12.61-24.26,30.54-11.22,3.88-18.42,10.23-18.42,17.49,0,5.99,4.77,11.51,13.4,15.54h0c2.1.89,4.28,1.67,6.45,2.35,4.2,14.61,12.72,24.44,22.8,24.44,6.48-.39,12.4-3.92,15.78-9.48.71-.96.5-2.35-.5-3.06s-2.35-.5-3.06.5c-2.64,4.35-7.2,7.2-12.26,7.66-7.27,0-13.86-7.48-17.67-18.6,6.59,1.64,13.36,2.39,20.2,2.24h.5c1.21,0,2.17-.96,2.17-2.17s-.96-2.17-2.17-2.17h-.5c-7.34.18-14.64-.82-21.66-2.81-1.32-5.31-2.1-11.15-2.1-17.32,0-3.92.32-7.73.89-11.37,6.31-1.85,14.04-3.03,22.84-3.03,24.41,0,40.8,8.91,40.8,17.25,0,4.49-4.56,8.87-12.11,12.08l-1.64-6.06c-.21-.75-1-1.21-1.75-1-.25.07-.46.18-.64.36l-12.33,12.44c-.57.57-.53,1.46,0,2.03.18.18.39.29.64.36l16.96,4.45c.75.21,1.53-.25,1.75-1,.07-.25.07-.5,0-.75l-1.82-6.59c9.66-4.03,15.32-9.87,15.32-16.35l.11.04Zm-71.72,12.9c-1.14-.43-2.24-.86-3.38-1.32h0c-6.91-3.21-10.9-7.45-10.9-11.58,0-4.56,4.92-9.26,13.29-12.61-.39,3.14-.61,6.41-.61,9.76,0,5.56.57,10.83,1.57,15.75h.04Z"/>
          <path class="cls-2" d="m162.31,214.31c-10.3,0-19.44-9.46-24.03-24.73-2.04-.66-4.01-1.39-5.86-2.17-9.21-4.3-14.26-10.27-14.26-16.84,0-7.55,6.77-14.28,18.6-18.56,3.76-18.79,13.72-30.89,25.5-30.89,4.8,0,9.48,2.13,13.59,6.18l4.21-3.06c.38-.3.91-.5,1.44-.52.73-.06,1.44.17,2.01.64.6.49.97,1.17,1.03,1.93l1.81,17.4c.07.49-.01,1.02-.25,1.49-.29.64-.85,1.17-1.56,1.44-.71.27-1.48.25-2.17-.06l-16-7.16c-.55-.27-.91-.58-1.17-.97-.42-.57-.59-1.33-.47-2.08.12-.75.53-1.41,1.14-1.85l4.03-2.92c-2.48-2.15-5.1-3.28-7.65-3.28-7.13,0-14,8.47-17.48,21.31,6.25-1.41,12.97-2.13,20-2.13,26.13,0,46.6,10.12,46.6,23.05v1.96l-.25-.08c-.91,6-6.11,11.34-14.9,15.26l1.49,5.4c.14.49.14,1.01,0,1.51-.43,1.52-2.01,2.4-3.5,1.97l-16.93-4.44c-.53-.15-.94-.39-1.28-.72-1.11-1.18-1.1-2.94,0-4.04l12.32-12.43c.34-.34.75-.58,1.26-.72.73-.21,1.5-.11,2.17.27.65.38,1.12.98,1.33,1.7l1.21,4.48c6.15-2.91,9.76-6.62,9.76-10.11,0-7.49-16.17-15.83-39.38-15.83-7.71,0-15.15.94-21.57,2.72-.49,3.41-.74,6.85-.74,10.25,0,5.48.63,10.92,1.87,16.17,6.79,1.85,13.66,2.71,20.45,2.54h.53c1.98,0,3.59,1.61,3.59,3.59s-1.61,3.59-3.59,3.59h-.5c-6.05.13-12.08-.44-17.96-1.69,3.78,9.41,9.53,15.17,15.37,15.21,4.57-.44,8.72-3.04,11.11-6.98l.06-.09c.57-.79,1.4-1.31,2.35-1.47.94-.15,1.9.07,2.69.64.79.57,1.32,1.41,1.47,2.38.15.94-.07,1.87-.61,2.63-3.62,5.91-9.93,9.69-16.88,10.11h0Zm-.05-90.36c-10.36,0-19.55,11.81-22.87,29.38l-.15.81-.78.27c-10.94,3.78-17.47,9.82-17.47,16.16,0,5.4,4.47,10.46,12.58,14.25,1.93.82,4.06,1.59,6.27,2.28l.73.23.21.73c4.16,14.44,12.37,23.42,21.44,23.42,5.96-.36,11.44-3.65,14.57-8.8l.07-.11c.16-.21.15-.44.13-.56-.02-.12-.09-.35-.32-.51-.18-.13-.39-.17-.59-.15-.13.02-.32.09-.47.28-2.87,4.69-7.84,7.78-13.31,8.28h-.13c-7.71,0-14.81-7.3-19.01-19.55l-.84-2.46,2.53.63c6.44,1.6,13.11,2.34,19.83,2.2h.53c.43,0,.76-.33.76-.76s-.32-.76-.76-.76h-.5c-7.3.17-14.73-.79-22.05-2.87l-.79-.22-.2-.8c-.04-.16-.08-.33-.12-.49h-4.51l-.08-.38c-.88-.34-1.75-.68-2.65-1.04-7.51-3.48-11.79-8.17-11.79-12.89,0-5.25,5.17-10.32,14.18-13.93l2.23-.89-.3,2.38c-.39,3.16-.59,6.38-.59,9.59,0,4.96.47,9.89,1.39,14.69l1.7.64c-1.07-5-1.6-10.14-1.6-15.32,0-3.85.31-7.74.91-11.59l.14-.89.86-.25c6.87-2.02,14.91-3.09,23.24-3.09,26.07,0,42.21,9.69,42.21,18.66,0,5-4.73,9.88-12.98,13.38l-1.5.64-2.06-7.63-12.34,12.42,16.96,4.47-2.13-7.79,1.15-.48c9.18-3.83,14.45-9.31,14.45-15.05v-1.39c-1.59-10.48-20.56-18.79-43.66-18.79-7.67,0-14.93.87-21.59,2.59l-2.26.58.52-2.27c3.61-15.65,11.77-25.75,20.8-25.75,3.75,0,7.51,1.82,10.88,5.27l1.15,1.18-6.75,4.88,16,7.18h0s0,0,0,0l-1.82-17.41h-.06s-6.16,4.48-6.16,4.48l-.85-.92c-3.77-4.04-8.06-6.18-12.4-6.18Zm-26.69,36.23c-6.35,2.97-10.2,6.83-10.2,10.35s3.77,7.37,10.08,10.29c.3.12.59.24.89.36-.75-4.42-1.13-8.96-1.13-13.5,0-2.5.12-5.01.35-7.5Zm47.98-16.15s0,0,0,0h0Zm-1.77-17.54l-.02.02s.02-.01.02-.02Z"/>
        </g>
      </g>
      <path class="cls-1" d="m198.21,291.2h-64.51c-8.05,0-14.6-6.55-14.6-14.6v-5.2c0-4.74,3.86-8.6,8.6-8.6h76.52c4.74,0,8.6,3.86,8.6,8.6v5.2c0,8.05-6.55,14.6-14.6,14.6Zm-70.52-22.73c-1.62,0-2.93,1.31-2.93,2.93v5.2c0,4.93,4.01,8.93,8.93,8.93h64.51c4.93,0,8.93-4.01,8.93-8.93v-5.2c0-1.62-1.31-2.93-2.93-2.93h-76.52Z"/>
      <path class="cls-1" d="m181.04,321.5h-30.19c-11.33,0-20.55-9.22-20.55-20.55v-6.83c0-4.73,3.85-8.58,8.58-8.58h54.13c4.73,0,8.58,3.85,8.58,8.58v6.83c0,11.33-9.22,20.55-20.55,20.55Zm-42.16-30.3c-1.61,0-2.91,1.31-2.91,2.91v6.83c0,8.21,6.68,14.88,14.88,14.88h30.19c8.21,0,14.88-6.68,14.88-14.88v-6.83c0-1.61-1.31-2.91-2.91-2.91h-54.13Z"/>
      <path class="cls-1" d="m172.54,337.32h-13.17c-6.39,0-11.59-5.2-11.59-11.59v-4.23c0-3.13,2.55-5.67,5.67-5.67h25c3.13,0,5.67,2.55,5.67,5.67v4.23c0,6.39-5.2,11.59-11.59,11.59Zm-19.09-15.82v4.23c0,3.26,2.65,5.92,5.92,5.92h13.17c3.26,0,5.92-2.66,5.92-5.92v-4.23h-25.01Z"/>
      <path class="cls-1" d="m148.21,303.18h-15.07c-1.57,0-2.83-1.27-2.83-2.83s1.27-2.83,2.83-2.83h15.07c1.57,0,2.83,1.27,2.83,2.83s-1.27,2.83-2.83,2.83Z"/>
      <path class="cls-1" d="m145.78,253.46h-15.07c-1.57,0-2.83-1.27-2.83-2.83s1.27-2.83,2.83-2.83h15.07c1.57,0,2.83,1.27,2.83,2.83s-1.27,2.83-2.83,2.83Z"/>
      <path class="cls-1" d="m142.94,238.46h-15.07c-1.57,0-2.83-1.27-2.83-2.83s1.27-2.83,2.83-2.83h15.07c1.57,0,2.83,1.27,2.83,2.83s-1.27,2.83-2.83,2.83Z"/>
      <g>
        <path class="cls-1" d="m283.26,113.55c-.57,0-1.15-.17-1.65-.53-1.27-.91-1.57-2.67-.67-3.95,0,0,.34-.48,1.02-1.29,1.01-1.2,2.8-1.35,3.99-.34,1.2,1.01,1.35,2.8.34,3.99-.46.55-.71.89-.74.93-.55.77-1.42,1.18-2.3,1.18Z"/>
        <path class="cls-1" d="m360.61,103.63c-.4,0-.81-.09-1.2-.27-.83-.39-1.64-.76-2.46-1.12-1.43-.63-2.08-2.3-1.45-3.74.63-1.43,2.3-2.09,3.74-1.45.85.37,1.71.76,2.58,1.17,1.42.66,2.03,2.35,1.37,3.77-.48,1.03-1.5,1.63-2.57,1.63Zm-66.06-.19c-.93,0-1.84-.46-2.38-1.29-.85-1.31-.48-3.07.83-3.92.81-.52,1.64-1.04,2.48-1.52,1.36-.78,3.09-.32,3.87,1.04.78,1.36.32,3.09-1.04,3.87-.75.44-1.51.9-2.23,1.37-.48.31-1.01.46-1.54.46Zm50.57-5.68c-.26,0-.52-.04-.78-.11-.87-.25-1.73-.48-2.58-.69-1.52-.38-2.44-1.92-2.06-3.44s1.92-2.44,3.44-2.06c.91.23,1.83.47,2.76.74,1.51.43,2.38,2,1.95,3.5-.36,1.25-1.49,2.06-2.72,2.06Zm-35.48-1.04c-1.25,0-2.39-.83-2.73-2.09-.41-1.51.48-3.07,2-3.48.92-.25,1.88-.48,2.82-.69,1.53-.33,3.04.64,3.37,2.17.33,1.53-.64,3.04-2.17,3.37-.86.19-1.71.39-2.55.62-.25.07-.5.1-.74.1Zm19.18-1.84c-.06,0-.12,0-.18,0-.9-.06-1.78-.09-2.64-.11-1.57-.03-2.81-1.32-2.78-2.89.03-1.56,1.33-2.8,2.89-2.78.95.02,1.91.06,2.88.12,1.56.1,2.75,1.44,2.66,3-.09,1.5-1.34,2.66-2.83,2.66Z"/>
        <path class="cls-1" d="m374.04,110.88c-.5,0-1.01-.13-1.47-.42-.4-.24-.8-.48-1.19-.72-1.34-.8-1.78-2.54-.98-3.89.8-1.34,2.54-1.78,3.89-.98.41.25.82.49,1.24.75,1.34.82,1.76,2.56.94,3.9-.53.88-1.47,1.36-2.42,1.36Z"/>
      </g>
      <g>
        <path class="cls-1" d="m35.8,234.29c-.61,0-1.22-.19-1.74-.6-.82-.64-1.27-1.08-1.35-1.16-1.1-1.11-1.1-2.91.02-4.01,1.11-1.1,2.89-1.09,4,0,.02.02.29.28.81.69,1.24.96,1.46,2.74.5,3.98-.56.72-1.4,1.1-2.24,1.1Z"/>
        <path class="cls-1" d="m51.5,240.34c-.12,0-.25,0-.37-.02-1.01-.13-2.02-.3-2.99-.5-1.53-.31-2.52-1.81-2.21-3.35s1.81-2.52,3.35-2.21c.85.17,1.72.32,2.6.44,1.55.21,2.64,1.63,2.44,3.18-.19,1.43-1.41,2.46-2.81,2.46Zm14.11-.29c-1.37,0-2.58-1-2.8-2.4-.24-1.55.81-3,2.36-3.24.87-.14,1.75-.29,2.66-.48,1.54-.31,3.03.68,3.35,2.21.31,1.53-.68,3.03-2.21,3.34-.97.2-1.95.38-2.92.53-.15.02-.3.03-.44.03Zm16.32-4.68c-1.12,0-2.18-.67-2.63-1.77-.59-1.45.11-3.1,1.56-3.69.83-.34,1.68-.7,2.53-1.07,1.43-.63,3.11.02,3.74,1.45.63,1.43-.02,3.11-1.45,3.74-.91.4-1.8.78-2.69,1.14-.35.14-.71.21-1.07.21Z"/>
        <path class="cls-1" d="m97.13,227.71c-.97,0-1.91-.49-2.44-1.38-.8-1.34-.36-3.08.98-3.89.39-.24.79-.47,1.19-.72,1.34-.82,3.08-.39,3.9.94.82,1.34.39,3.08-.94,3.9-.42.25-.83.5-1.24.75-.45.27-.96.4-1.45.4Z"/>
      </g>
      <g>
        <path class="cls-1" d="m112.34,63.15c-.21,0-.42-.02-.64-.07-.11-.03-.72-.17-1.7-.54-1.47-.55-2.21-2.18-1.67-3.65.55-1.47,2.18-2.22,3.65-1.67.64.24,1.01.33,1.01.33,1.51.37,2.45,1.9,2.09,3.41-.31,1.3-1.47,2.18-2.75,2.18Z"/>
        <path class="cls-1" d="m99.46,54.68c-.75,0-1.51-.3-2.06-.89-.69-.73-1.36-1.5-2-2.28-.99-1.21-.81-3,.4-3.99,1.21-.99,3-.81,3.99.4.56.68,1.14,1.35,1.74,1.98,1.07,1.14,1.02,2.93-.12,4.01-.55.52-1.25.77-1.94.77Zm-9.04-14.29c-1.11,0-2.16-.65-2.61-1.74-.38-.89-.74-1.82-1.08-2.76-.54-1.47.21-3.1,1.68-3.64,1.47-.54,3.1.21,3.64,1.68.32.87.65,1.71.99,2.52.61,1.44-.07,3.1-1.52,3.71-.36.15-.73.22-1.1.22Zm-4.6-16.34c-1.36,0-2.56-.98-2.79-2.36-.16-.94-.31-1.9-.44-2.88-.21-1.55.87-2.98,2.42-3.2,1.55-.22,2.98.87,3.2,2.42.13.93.27,1.83.42,2.72.26,1.54-.78,3.01-2.32,3.27-.16.03-.32.04-.48.04Z"/>
        <path class="cls-1" d="m84.35,7.09c-1.54,0-2.81-1.24-2.83-2.79,0-.48-.01-.96-.01-1.45,0-1.57,1.25-2.84,2.82-2.85,1.57,0,2.84,1.25,2.85,2.82,0,.47,0,.93.01,1.39.02,1.57-1.22,2.85-2.79,2.88h-.05Z"/>
      </g>
    </g>
  </g>
</svg>