<?xml version="1.0" encoding="UTF-8"?>
<svg id="Calque_2" data-name="Calque 2" xmlns="http://www.w3.org/2000/svg" viewBox="0 0 411.09 344.42">
  <defs>
    <style>
      .cls-1 {
        fill: #294351;
      }

      .cls-1, .cls-2, .cls-3 {
        stroke-width: 0px;
      }

      .cls-2 {
        fill: #fff;
      }

      .cls-3 {
        fill: #4974f3;
      }
    </style>
  </defs>
  <g id="Calque_1-2" data-name="Calque 1">
    <g>
      <g>
        <circle class="cls-2" cx="351.63" cy="121.41" r="13.64"/>
        <path class="cls-3" d="m351.64,137.37c-6.81,0-13.13-4.39-15.25-11.23-2.61-8.4,2.11-17.36,10.51-19.97,4.07-1.26,8.39-.87,12.16,1.12,3.77,1.99,6.55,5.32,7.81,9.39,2.61,8.4-2.11,17.36-10.51,19.97-1.57.49-3.16.72-4.72.72Zm0-27.29c-1.13,0-2.26.17-3.37.51-5.97,1.85-9.32,8.21-7.46,14.18,1.85,5.97,8.22,9.31,14.18,7.46,5.97-1.85,9.32-8.21,7.46-14.18-.9-2.89-2.87-5.26-5.55-6.67-1.65-.87-3.45-1.31-5.26-1.31Z"/>
      </g>
      <g>
        <circle class="cls-2" cx="401.85" cy="172.15" r="6.92"/>
        <path class="cls-3" d="m401.86,181.39c-3.94,0-7.6-2.54-8.83-6.5h0c-1.51-4.86,1.22-10.05,6.08-11.56,2.36-.73,4.86-.5,7.04.65,2.18,1.15,3.79,3.08,4.52,5.43,1.51,4.86-1.22,10.05-6.08,11.56-.91.28-1.83.42-2.73.42Zm-4.41-7.87c.75,2.43,3.34,3.79,5.77,3.04,1.18-.37,2.14-1.17,2.71-2.26s.69-2.34.32-3.52-1.17-2.14-2.26-2.71c-1.09-.58-2.34-.69-3.52-.32-2.43.75-3.79,3.34-3.04,5.77h0Z"/>
      </g>
      <g>
        <circle class="cls-2" cx="150.62" cy="213.07" r="3.46"/>
        <path class="cls-3" d="m150.63,218.84c-2.46,0-4.75-1.59-5.52-4.06-.46-1.47-.31-3.03.41-4.4.72-1.37,1.92-2.37,3.4-2.83,1.47-.46,3.04-.32,4.4.41,1.37.72,2.37,1.92,2.83,3.4.94,3.04-.76,6.28-3.8,7.22-.57.18-1.14.26-1.71.26Zm0-6.92c-.11,0-.23.02-.34.05-.6.19-.94.83-.76,1.44.19.6.84.94,1.44.76.6-.19.94-.83.76-1.44-.15-.49-.61-.81-1.1-.81Z"/>
      </g>
      <g>
        <circle class="cls-2" cx="259.06" cy="295.48" r="6.92"/>
        <path class="cls-3" d="m259.05,304.72c-1.48,0-2.94-.36-4.29-1.07-2.18-1.15-3.79-3.08-4.52-5.43h0c-.73-2.36-.5-4.86.65-7.04,1.15-2.18,3.08-3.79,5.43-4.52,2.36-.73,4.85-.5,7.04.65,2.18,1.15,3.79,3.08,4.52,5.43.73,2.36.5,4.85-.65,7.04-1.15,2.18-3.08,3.79-5.43,4.52-.9.28-1.83.42-2.75.42Zm-4.39-7.87c.37,1.18,1.17,2.14,2.26,2.71,1.09.57,2.33.69,3.51.32,1.18-.37,2.14-1.17,2.71-2.26s.69-2.34.32-3.52-1.17-2.14-2.26-2.71c-1.09-.58-2.34-.69-3.51-.32-1.18.37-2.14,1.17-2.71,2.26s-.69,2.34-.32,3.52h0Z"/>
      </g>
      <g>
        <circle class="cls-2" cx="255.48" cy="52.42" r="23.76"/>
        <path class="cls-3" d="m255.45,78.51c-4.17,0-8.31-1.01-12.11-3.01-6.16-3.24-10.69-8.69-12.76-15.34s-1.42-13.71,1.83-19.87c3.24-6.16,8.69-10.69,15.34-12.76,13.73-4.26,28.37,3.44,32.63,17.17,4.26,13.73-3.44,28.37-17.17,32.63-2.55.79-5.16,1.18-7.76,1.18Zm.02-47.54c-2.1,0-4.23.31-6.35.97-5.47,1.7-9.95,5.43-12.62,10.5-2.67,5.07-3.2,10.87-1.5,16.35h0c1.7,5.47,5.42,9.95,10.49,12.62,5.07,2.67,10.88,3.2,16.35,1.5,5.47-1.7,9.95-5.43,12.62-10.5,2.67-5.07,3.2-10.87,1.5-16.35-2.85-9.18-11.35-15.09-20.5-15.09Z"/>
      </g>
      <g>
        <circle class="cls-2" cx="314.89" cy="204.46" r="18.02"/>
        <path class="cls-3" d="m314.9,224.8c-8.67,0-16.73-5.6-19.43-14.31h0c-1.61-5.19-1.1-10.69,1.43-15.5,2.53-4.81,6.78-8.34,11.97-9.95,10.72-3.33,22.12,2.69,25.45,13.39,1.61,5.19,1.1,10.69-1.43,15.5-2.53,4.81-6.78,8.34-11.97,9.95-2,.62-4.02.91-6.01.91Zm-.02-36.05c-1.54,0-3.1.23-4.65.71-4.01,1.24-7.29,3.97-9.25,7.69-1.95,3.71-2.35,7.97-1.1,11.97h0c2.57,8.28,11.4,12.92,19.66,10.35,4.01-1.24,7.29-3.98,9.25-7.69,1.95-3.71,2.35-7.97,1.1-11.97-2.09-6.73-8.31-11.06-15.01-11.06Z"/>
      </g>
      <g>
        <path class="cls-1" d="m156.98,181.67c-1.18,0-2.18-.92-2.25-2.12-.07-1.24.87-2.31,2.12-2.38,1.15-.07,1.78-.05,1.77-.05,1.24.03,2.23,1.05,2.21,2.3-.02,1.23-1.02,2.21-2.25,2.21h-.04s-.55,0-1.43.05c-.05,0-.09,0-.13,0Z"/>
        <path class="cls-1" d="m113.55,204.09c-.52,0-1.05-.18-1.48-.56-.94-.82-1.03-2.24-.21-3.18.64-.73,1.28-1.44,1.93-2.12.86-.9,2.28-.95,3.18-.09.9.85.95,2.28.09,3.18-.61.64-1.22,1.31-1.81,2-.45.51-1.07.77-1.7.77Zm12.39-11.15c-.71,0-1.41-.34-1.85-.96-.71-1.02-.46-2.42.56-3.14.8-.56,1.6-1.09,2.4-1.6,1.05-.67,2.44-.36,3.11.69.67,1.05.36,2.44-.69,3.11-.74.47-1.49.97-2.24,1.49-.39.27-.84.41-1.29.41Zm14.77-7.71c-.92,0-1.78-.56-2.11-1.48-.43-1.17.17-2.46,1.34-2.89.93-.34,1.84-.65,2.73-.94,1.19-.38,2.45.28,2.83,1.46.38,1.19-.28,2.45-1.46,2.83-.83.26-1.67.55-2.54.87-.26.09-.52.14-.78.14Z"/>
        <path class="cls-1" d="m104.55,216.77c-.38,0-.77-.1-1.12-.3-1.08-.62-1.45-1.99-.83-3.07.28-.48.56-.96.84-1.43.64-1.06,2.03-1.41,3.09-.76,1.07.64,1.41,2.03.76,3.09-.27.44-.53.89-.79,1.35-.42.72-1.17,1.13-1.95,1.13Z"/>
      </g>
      <g>
        <path class="cls-1" d="m173.24,322.39c-.33,0-.66-.07-.98-.22-.98-.47-1.49-.74-1.49-.74-1.1-.57-1.54-1.93-.96-3.04.57-1.11,1.93-1.54,3.03-.97.02,0,.49.26,1.38.68,1.12.54,1.59,1.88,1.05,3.01-.39.8-1.19,1.28-2.03,1.28Z"/>
        <path class="cls-1" d="m245.38,340.17h-.01c-1.06,0-2.12-.02-3.17-.05-1.24-.03-2.22-1.07-2.19-2.32s1.02-2.2,2.32-2.19c1.02.03,2.04.05,3.06.05,1.24,0,2.25,1.02,2.24,2.26,0,1.24-1.01,2.24-2.25,2.24Zm15.54-1.03c-1.1,0-2.06-.81-2.23-1.93-.18-1.23.68-2.37,1.91-2.55,1-.14,2.01-.3,3.01-.48,1.22-.21,2.39.6,2.61,1.83.22,1.23-.6,2.39-1.83,2.61-1.05.18-2.1.35-3.15.5-.11.02-.22.02-.32.02Zm-34.18-.38c-.11,0-.21,0-.32-.02-1.05-.15-2.09-.31-3.13-.48-1.23-.2-2.06-1.36-1.86-2.59.2-1.23,1.36-2.07,2.59-1.86,1,.16,2.02.32,3.04.47,1.23.18,2.09,1.32,1.91,2.55-.16,1.12-1.12,1.93-2.23,1.93Zm-18.34-3.69c-.19,0-.37-.02-.56-.07-1.03-.26-2.04-.54-3.05-.81-1.2-.33-1.91-1.57-1.58-2.77.33-1.2,1.56-1.91,2.77-1.58.98.27,1.97.53,2.98.79,1.2.31,1.93,1.54,1.62,2.74-.26,1.02-1.18,1.69-2.18,1.69Zm70.63-.5c-.91,0-1.77-.56-2.11-1.46-.44-1.16.15-2.46,1.31-2.9.94-.35,1.88-.73,2.81-1.12,1.15-.49,2.47.05,2.95,1.2.49,1.15-.05,2.47-1.2,2.95-.99.42-1.98.81-2.98,1.19-.26.1-.53.15-.79.15Zm-88.51-5.01c-.25,0-.51-.04-.76-.13-1.02-.37-2.01-.73-2.96-1.09-1.16-.44-1.75-1.74-1.31-2.9.44-1.17,1.74-1.76,2.9-1.31.93.35,1.9.71,2.9,1.07,1.17.42,1.78,1.71,1.36,2.88-.33.92-1.2,1.49-2.12,1.49Z"/>
        <path class="cls-1" d="m295.56,325.85c-.71,0-1.4-.33-1.84-.95-.72-1.02-.47-2.42.54-3.14.42-.3.85-.6,1.27-.91,1-.74,2.41-.53,3.15.47.74,1,.53,2.41-.47,3.15-.45.33-.9.65-1.35.97-.39.28-.85.41-1.3.41Z"/>
      </g>
      <g>
        <path class="cls-1" d="m92.69,125.87c-.62,0-1.24-.26-1.69-.76-.76-.86-1.12-1.4-1.19-1.5-.68-1.04-.4-2.44.64-3.12,1.03-.68,2.43-.4,3.12.63.05.07.3.43.82,1.01.82.93.73,2.36-.2,3.18-.43.38-.96.56-1.49.56Z"/>
        <path class="cls-1" d="m164.37,147.25h-.03c-1.04-.02-2.07-.04-3.09-.06-1.24-.03-2.22-1.07-2.19-2.31.03-1.24,1.08-2.22,2.31-2.19,1,.03,2.01.05,3.04.06,1.24.02,2.24,1.04,2.22,2.29-.02,1.23-1.02,2.22-2.25,2.22Zm-15.29-.75c-.06,0-.13,0-.2,0-1.04-.09-2.07-.19-3.09-.3-1.24-.13-2.14-1.24-2.01-2.47.13-1.24,1.26-2.14,2.47-2.01.99.1,1.99.2,3.01.29,1.24.11,2.16,1.2,2.05,2.44-.1,1.17-1.09,2.06-2.24,2.06Zm-15.18-2.01c-.13,0-.27-.01-.41-.04-1.04-.19-2.06-.39-3.05-.59-1.22-.25-2-1.44-1.75-2.66s1.43-2.01,2.66-1.75c.96.2,1.95.39,2.96.58,1.22.22,2.03,1.4,1.81,2.62-.2,1.09-1.15,1.85-2.21,1.85Zm-14.86-3.65c-.22,0-.45-.03-.68-.11-1.03-.32-2.02-.66-2.97-.99-1.17-.41-1.79-1.7-1.38-2.87.41-1.17,1.69-1.8,2.87-1.38.91.32,1.86.64,2.84.95,1.19.37,1.84,1.64,1.47,2.82-.3.96-1.19,1.57-2.15,1.57Zm-14.13-5.86c-.36,0-.72-.09-1.06-.27-.98-.53-1.9-1.05-2.76-1.57-1.07-.64-1.41-2.03-.77-3.09.64-1.07,2.03-1.41,3.09-.77.8.48,1.65.97,2.57,1.46,1.1.59,1.51,1.95.92,3.05-.41.76-1.18,1.19-1.99,1.19Z"/>
        <path class="cls-1" d="m176.66,147.13c-1.21,0-2.21-.96-2.25-2.18-.04-1.24.94-2.28,2.18-2.32l1.59-.06c1.23-.07,2.29.92,2.34,2.16.05,1.24-.92,2.29-2.16,2.34l-1.62.06h-.07Z"/>
      </g>
      <g>
        <path class="cls-1" d="m233.14,255.46c-1.98,0-3.58-1.6-3.58-3.58v-24.36c0-1.98,1.6-3.58,3.58-3.58s3.58,1.6,3.58,3.58v24.36c0,1.98-1.6,3.58-3.58,3.58Z"/>
        <path class="cls-1" d="m245.31,243.28h-24.36c-1.98,0-3.58-1.6-3.58-3.58s1.6-3.58,3.58-3.58h24.36c1.98,0,3.58,1.6,3.58,3.58s-1.6,3.58-3.58,3.58Z"/>
      </g>
      <g>
        <path class="cls-1" d="m335.86,84.33c-1.98,0-3.58-1.6-3.58-3.58v-24.36c0-1.98,1.6-3.58,3.58-3.58s3.58,1.6,3.58,3.58v24.36c0,1.98-1.6,3.58-3.58,3.58Z"/>
        <path class="cls-1" d="m348.04,72.15h-24.36c-1.98,0-3.58-1.6-3.58-3.58s1.6-3.58,3.58-3.58h24.36c1.98,0,3.58,1.6,3.58,3.58s-1.6,3.58-3.58,3.58Z"/>
      </g>
      <g>
        <path class="cls-1" d="m165.79,68.57c-1.98,0-3.58-1.6-3.58-3.58v-24.36c0-1.98,1.6-3.58,3.58-3.58s3.58,1.6,3.58,3.58v24.36c0,1.98-1.6,3.58-3.58,3.58Z"/>
        <path class="cls-1" d="m177.97,56.39h-24.36c-1.98,0-3.58-1.6-3.58-3.58s1.6-3.58,3.58-3.58h24.36c1.98,0,3.58,1.6,3.58,3.58s-1.6,3.58-3.58,3.58Z"/>
      </g>
      <g>
        <polygon class="cls-2" points="406.11 251.11 314.89 204.46 331.55 305.55 355.22 288.27 374.88 315.19 400.67 296.36 381.01 269.44 406.11 251.11"/>
        <path class="cls-1" d="m374.88,317.5c-.12,0-.24-.01-.36-.03-.6-.1-1.15-.43-1.51-.92l-18.29-25.05-21.81,15.92c-.65.47-1.49.58-2.24.27-.74-.3-1.27-.97-1.4-1.76l-16.66-101.09c-.14-.86.21-1.73.92-2.24s1.64-.59,2.41-.19l91.22,46.65c.71.37,1.19,1.08,1.25,1.88.06.8-.29,1.58-.94,2.05l-23.23,16.96,18.3,25.05c.36.5.51,1.11.42,1.72-.1.6-.43,1.15-.92,1.51l-25.79,18.83c-.4.29-.88.45-1.36.45Zm-19.66-31.55c.71,0,1.42.33,1.87.95l18.29,25.05,22.06-16.1-18.3-25.05c-.36-.5-.51-1.11-.42-1.72.1-.6.43-1.15.92-1.51l22.07-16.11-83.8-42.86,15.3,92.87,20.64-15.07c.41-.3.89-.45,1.36-.45Z"/>
      </g>
      <g>
        <g>
          <path class="cls-2" d="m292.3,139.95h-.01c.13-.25.26-.48.38-.73,2.46-5.32.13-11.7-5.2-14.16-2.76-1.28-5.8-1.25-8.43-.2.17-.28.32-.58.46-.88,2.46-5.32.13-11.7-5.2-14.16-3.13-1.45-6.62-1.23-9.47.28,1.86-5.13-.5-10.97-5.54-13.31-5.32-2.46-11.7-.13-14.16,5.2-.02.04-.03.08-.05.11h0s.05-.11.05-.11l17.54-37.88c2.46-5.32.13-11.7-5.2-14.16-5.32-2.46-11.7-.13-14.16,5.2l-15.37,33.21-5.15,11.13-16.66,8.52c-3.69,2.03-7.51,8.83-7.39,12.96l-4.52,33.77h0c-.48,4.53,1.91,9.09,6.26,11.1l45.32,20.98c5.46,2.53,10.97,5.08,17.19-4.09l28.37-41.39c.31-.39.6-.8.85-1.24l.09-.13Z"/>
          <path class="cls-1" d="m253.54,191.45c-3.21,0-6.19-1.38-8.73-2.56l-45.32-20.98c-5.14-2.38-8.19-7.78-7.59-13.44l4.5-33.66c-.03-5.03,4.25-12.46,8.59-14.85l16.01-8.19,20.19-43.61c1.45-3.13,4.05-5.52,7.31-6.72,3.26-1.2,6.78-1.06,9.92.39,6.49,3.01,9.33,10.73,6.33,17.23l-13.37,28.87c2.85-.78,5.98-.59,8.87.74,4.72,2.19,7.57,7.01,7.5,12,2.52-.42,5.12-.08,7.51,1.03,5.46,2.53,8.34,8.4,7.32,14.07,2-.07,4.01.33,5.84,1.18,3.13,1.45,5.52,4.05,6.72,7.31,1.2,3.26,1.06,6.79-.39,9.92-.1.21-.21.42-.32.63-.06.15-.14.29-.23.43l-.09.13c-.22.39-.57.9-.96,1.39l-28.28,41.26c-3.86,5.7-7.75,7.43-11.34,7.43Zm-.54-140.19c-.98,0-1.96.17-2.9.52-2.1.77-3.78,2.31-4.71,4.32l-20.52,44.33c-.22.47-.59.85-1.04,1.09l-16.66,8.52c-2.81,1.55-6.23,7.54-6.14,10.83,0,.13,0,.25-.02.37l-4.52,33.77c-.39,3.63,1.6,7.15,4.94,8.7l45.32,20.98c5.33,2.47,9.19,4.26,14.3-3.29l28.38-41.4c.33-.43.55-.75.75-1.08.02-.04.04-.09.07-.13.11-.2.21-.37.3-.56.94-2.02,1.03-4.29.25-6.39-.77-2.1-2.31-3.77-4.32-4.71-2.09-.97-4.43-1.02-6.6-.16-.91.37-1.96.11-2.61-.64-.64-.74-.75-1.82-.25-2.67.13-.23.25-.45.36-.69.93-2.02,1.02-4.28.25-6.39-.77-2.1-2.31-3.77-4.32-4.71-2.37-1.1-5.07-1.02-7.42.22-.84.44-1.87.33-2.6-.3-.72-.63-.98-1.63-.66-2.53,1.46-4.04-.45-8.62-4.34-10.42-2.01-.93-4.28-1.02-6.39-.25-2.1.77-3.77,2.31-4.71,4.32h0c-.29.62-.84,1.13-1.49,1.31-.65.18-1.37.13-1.93-.25-.95-.63-1.3-1.87-.82-2.9l17.58-37.98c1.94-4.18.11-9.16-4.07-11.09-1.11-.51-2.29-.77-3.48-.77Z"/>
        </g>
        <g>
          <line class="cls-2" x1="228.19" y1="87.78" x2="212.07" y2="122.59"/>
          <path class="cls-1" d="m212.07,124.91c-.33,0-.66-.07-.97-.21-1.16-.54-1.66-1.91-1.13-3.07l16.12-34.82c.54-1.16,1.91-1.66,3.07-1.13,1.16.54,1.66,1.91,1.13,3.07l-16.12,34.82c-.39.84-1.23,1.34-2.1,1.34Z"/>
        </g>
      </g>
      <g>
        <rect class="cls-3" x="41.09" y="38.43" width="4.62" height="74.76" transform="translate(-23.92 20.15) rotate(-20.63)"/>
        <rect class="cls-3" x="55.69" y="32.94" width="4.62" height="74.76" transform="translate(-21.05 24.94) rotate(-20.63)"/>
        <rect class="cls-3" x="17.88" y="86.58" width="28.39" height="4.62" transform="translate(-29.25 16.99) rotate(-20.62)"/>
        <rect class="cls-3" x="12.61" y="72.58" width="28.39" height="4.62" transform="translate(-24.65 14.23) rotate(-20.62)"/>
        <rect class="cls-3" x="61.4" y="70.19" width="28.46" height="4.62" transform="translate(-20.68 31.27) rotate(-20.62)"/>
        <rect class="cls-3" x="56.13" y="56.19" width="28.46" height="4.62" transform="translate(-16.09 28.52) rotate(-20.62)"/>
        <path class="cls-3" d="m28.43,40.59c-5.69,0-13.24-1.5-20.92-7.39-3.9-2.99-5.79-6.99-5.19-10.99.57-3.78,3.28-7.01,7.07-8.42,4.42-1.65,9.35-.54,13.51,3.03,11.16,9.59,16.21,18.53,16.42,18.91.33.58.38,1.27.16,1.9-.22.63-.71,1.13-1.32,1.37-.31.12-4.11,1.59-9.73,1.59Zm-14.92-22.9c-.86,0-1.7.15-2.51.45-2.22.82-3.79,2.65-4.11,4.77-.35,2.31.87,4.66,3.43,6.63,9.6,7.37,18.86,6.83,23.35,5.93-2.21-3.21-6.71-9.06-13.78-15.14-2.03-1.74-4.25-2.65-6.38-2.65Z"/>
        <path class="cls-3" d="m38.27,38.81c-.39,0-.78-.1-1.13-.29-.58-.32-.99-.88-1.13-1.53-.09-.42-2.19-10.47-.12-25.04.77-5.42,3.75-9.5,8.16-11.18,3.78-1.44,7.95-.8,10.87,1.67,3.08,2.6,4.3,6.86,3.34,11.68-3.75,18.88-18.59,24.35-19.21,24.57-.25.09-.51.13-.77.13ZM48.14,4.62c-.81,0-1.64.15-2.45.46-2.8,1.07-4.71,3.81-5.23,7.52-1.31,9.22-.83,16.6-.38,20.46,3.96-2.28,11.28-7.99,13.64-19.86.63-3.17,0-5.74-1.79-7.25-1.04-.88-2.38-1.33-3.79-1.33Z"/>
        <path class="cls-1" d="m31.52,124.54c-3.18,0-6.19-1.95-7.38-5.1L.51,56.66c-1.53-4.06.53-8.62,4.6-10.14l62.78-23.63c4.06-1.53,8.62.53,10.15,4.6l23.63,62.79c1.53,4.06-.53,8.62-4.6,10.14l-62.79,23.63c-.91.34-1.84.51-2.77.51ZM70.66,27c-.38,0-.77.07-1.14.21L6.73,50.84c-.81.3-1.45.91-1.81,1.71-.36.79-.39,1.68-.09,2.49l23.63,62.79c.63,1.68,2.5,2.53,4.19,1.9l62.79-23.63h0c1.68-.63,2.53-2.51,1.9-4.19l-23.63-62.79c-.49-1.3-1.73-2.11-3.05-2.11Z"/>
      </g>
      <g>
        <g>
          <path class="cls-3" d="m62.48,285.35c-1.41-.46-2.19-1.97-1.73-3.39l5.64-17.39c.46-1.41,1.97-2.19,3.39-1.73s2.19,1.97,1.73,3.39l-5.64,17.39c-.46,1.41-1.97,2.19-3.39,1.73Z"/>
          <path class="cls-3" d="m73.99,279.47l-17.39-5.64c-1.41-.46-2.19-1.97-1.73-3.39.46-1.41,1.97-2.19,3.39-1.73l17.39,5.64c1.41.46,2.19,1.97,1.73,3.39s-1.97,2.19-3.39,1.73Z"/>
        </g>
        <path class="cls-1" d="m124.87,344.42c-1.67,0-3.29-.24-4.78-.72l-.78-.25c-9.47-3.07-13.21-11.95-15.41-19.35l-.51-1.76c-1.57-4.88-4.5-10.93-13.19-13.74h0l-10.13-3.29c-8.68-2.82-14.61.35-18.8,3.43l-1.37,1.07c-6.14,4.71-14.38,9.71-23.85,6.63l-.78-.26c-5.1-1.65-9.65-6.49-11.87-12.62-1.76-4.87-3.58-14.84,4.03-26.91l8.81-13.65c.03-.05.07-.1.11-.15,12.23-15.94,26.19-19.9,46.68-13.26l37.47,12.15c20.49,6.65,29.47,18.05,30.01,38.13,0,.06,0,.13,0,.19l-.88,16.19c-.92,14.27-8.25,21.27-12.53,24.18-3.81,2.59-8.19,3.97-12.24,3.97Zm-33.24-40.22c10.8,3.5,14.41,11.26,16.18,16.8l.52,1.81c2.82,9.48,6.54,14.34,12.4,16.25l.78.25c3.78,1.22,8.76.2,13-2.68,3.59-2.43,9.72-8.35,10.51-20.63l.87-16.07c-.51-17.97-8.29-27.76-26.81-33.77l-37.47-12.15c-18.52-6.01-30.57-2.65-41.53,11.6l-8.74,13.55c-6.55,10.39-5.06,18.78-3.58,22.85,1.74,4.82,5.17,8.57,8.95,9.8l.78.26c5.86,1.9,11.72.14,19.59-5.89l1.41-1.1c4.74-3.48,12.22-7.64,23.02-4.14l10.13,3.29Z"/>
        <circle class="cls-3" cx="122.72" cy="283.96" r="3.94"/>
        <circle class="cls-3" cx="118.02" cy="298.47" r="3.94"/>
        <circle class="cls-3" cx="113.12" cy="288.86" r="3.94"/>
        <circle class="cls-3" cx="127.62" cy="293.57" r="3.94"/>
      </g>
    </g>
  </g>
</svg>