<?xml version="1.0" encoding="UTF-8"?>
<svg id="Calque_2" data-name="Calque 2" xmlns="http://www.w3.org/2000/svg" viewBox="0 0 369.57 266.78">
  <defs>
    <style>
      .cls-1 {
        fill: #e8563c;
      }

      .cls-1, .cls-2, .cls-3 {
        stroke-width: 0px;
      }

      .cls-4 {
        opacity: .5;
      }

      .cls-2 {
        fill: #294351;
      }

      .cls-3 {
        fill: #fff;
      }
    </style>
  </defs>
  <g id="Calque_1-2" data-name="Calque 1">
    <g>
      <g>
        <path class="cls-3" d="m246.62,138.84v59.52c0,18.04-36.87,19.82-36.87,19.82v-58.68s36.87-1.83,36.87-22.64c0-14.8-44.63-31.41-87.82-31.41-35.48,0-82.07,13.61-82.07,31.69,0,20.22,36.47,22.37,36.47,22.37v58.68s-36.47-2.5-36.47-22.47v-58"/>
        <path class="cls-2" d="m113.21,220.21s-.09,0-.14,0c-1.57-.11-38.37-2.88-38.37-24.5v-58c0-.19,0-.38,0-.58,0-20.58,49.81-33.72,84.1-33.72,44.51,0,89.85,16.88,89.85,33.45,0,.68-.03,1.34-.1,1.98h.1v59.52c0,19.75-37.22,21.78-38.81,21.86-.57.04-1.1-.18-1.5-.56-.4-.38-.63-.92-.63-1.47v-58.68c0-1.08.85-1.98,1.93-2.03.35-.02,34.94-1.98,34.94-20.61,0-12.56-42.41-29.38-85.78-29.38-36.03,0-80.03,13.68-80.03,29.65,0,18.07,34.21,20.32,34.56,20.34,1.08.06,1.92.96,1.92,2.03v58.68c0,.56-.23,1.1-.65,1.49-.38.35-.88.55-1.39.55Zm98.58-58.82v54.59c7.59-.7,32.8-4.05,32.8-17.62v-50.07c-8.26,10.08-26.71,12.55-32.8,13.11Zm-133.01-13.05v47.37c0,15.18,24.81,19.31,32.4,20.21v-54.55c-6.01-.6-24.21-3.18-32.4-13.03Z"/>
      </g>
      <g>
        <path class="cls-3" d="m113.21,174.62s17.47-8.5,48.13-8.5,48.41,7.83,48.41,7.83"/>
        <path class="cls-2" d="m114.1,176.45l-1.78-3.66c.73-.36,18.24-8.71,49.02-8.71s48.49,7.67,49.23,8l-1.64,3.73c-.17-.08-17.78-7.65-47.59-7.65s-47.07,8.21-47.24,8.29Z"/>
      </g>
      <g>
        <path class="cls-1" d="m138.7,150.96c-1.81,0-3.41-.32-4.81-.97-1.4-.65-2.5-1.58-3.29-2.8s-1.18-2.67-1.18-4.36v-.62h4.03v.52c0,1.41.48,2.54,1.44,3.37.96.84,2.23,1.25,3.81,1.25s2.8-.39,3.69-1.16,1.32-1.76,1.32-2.94v-.31c0-.83-.2-1.51-.61-2.02-.41-.51-.95-.89-1.63-1.13-.68-.24-1.45-.37-2.31-.37h-4.66v-4.52l8.24-4.62v-.52h-12.72v-3.62h17.17v5.42l-7.79,4.38v.52h1.43c1.16,0,2.27.22,3.32.68,1.05.45,1.92,1.14,2.59,2.07s1.01,2.13,1.01,3.62v.38c0,1.58-.38,2.94-1.13,4.1-.75,1.16-1.81,2.06-3.16,2.7s-2.94.96-4.75.96Z"/>
        <path class="cls-1" d="m160.05,150.96c-1.81,0-3.38-.34-4.73-1.03-1.34-.68-2.39-1.64-3.15-2.87-.75-1.23-1.13-2.65-1.13-4.28v-8.38c0-1.92.39-3.53,1.18-4.83.79-1.3,1.87-2.28,3.25-2.94s2.97-.99,4.78-.99,3.37.31,4.68.92c1.31.62,2.32,1.48,3.02,2.61.71,1.12,1.06,2.45,1.06,3.98h-4.1c0-1.07-.37-1.98-1.1-2.75-.73-.76-1.92-1.15-3.56-1.15s-2.92.43-3.81,1.3c-.89.87-1.34,2.07-1.34,3.6v2.71h.59c.39-.53,1.02-1.03,1.88-1.48.86-.45,2.07-.68,3.65-.68,1.44,0,2.75.3,3.95.9,1.19.6,2.16,1.48,2.9,2.64.74,1.16,1.11,2.55,1.11,4.17v.42c0,1.62-.38,3.04-1.15,4.26-.77,1.22-1.83,2.16-3.2,2.83s-2.97,1.01-4.8,1.01Zm.07-3.62c1.53,0,2.75-.41,3.65-1.23.9-.82,1.36-1.92,1.36-3.29v-.28c0-.95-.2-1.76-.61-2.43-.41-.67-.99-1.2-1.74-1.58-.75-.38-1.64-.57-2.66-.57s-1.88.19-2.64.57-1.35.91-1.76,1.58-.61,1.48-.61,2.43v.28c0,1.37.45,2.46,1.36,3.29.9.82,2.12,1.23,3.65,1.23Z"/>
        <path class="cls-1" d="m181.92,150.96c-2.85,0-5.13-.8-6.85-2.4-1.72-1.6-2.57-4.01-2.57-7.23v-6.05c0-3.15.86-5.54,2.57-7.18,1.71-1.63,4-2.45,6.85-2.45s5.16.82,6.87,2.45c1.7,1.63,2.55,4.03,2.55,7.18v6.05c0,3.22-.85,5.63-2.55,7.23-1.7,1.6-3.99,2.4-6.87,2.4Zm0-3.62c1.83,0,3.18-.51,4.05-1.53s1.3-2.47,1.3-4.35v-6.36c0-1.9-.48-3.35-1.43-4.35-.95-1-2.26-1.49-3.93-1.49s-3.04.51-3.96,1.53c-.93,1.02-1.39,2.46-1.39,4.31v6.36c0,1.92.45,3.38,1.34,4.38s2.23,1.49,4.02,1.49Z"/>
      </g>
      <g>
        <g id="player">
          <g>
            <rect class="cls-3" x="2.04" y="18.8" width="86.08" height="58.92" rx="2.88" ry="2.88"/>
            <path class="cls-2" d="m85.24,79.76H4.92c-2.71,0-4.92-2.21-4.92-4.92V21.68c0-2.71,2.21-4.92,4.92-4.92h80.32c2.71,0,4.92,2.21,4.92,4.92v53.16c0,2.71-2.21,4.92-4.92,4.92ZM4.92,20.84c-.46,0-.84.38-.84.84v53.16c0,.46.38.84.84.84h80.32c.46,0,.84-.38.84-.84V21.68c0-.46-.38-.84-.84-.84H4.92Z"/>
          </g>
        </g>
        <g>
          <circle class="cls-3" cx="20.5" cy="36.07" r="7.1"/>
          <path class="cls-1" d="m20.5,45.21c-5.04,0-9.14-4.1-9.14-9.14s4.1-9.14,9.14-9.14,9.14,4.1,9.14,9.14-4.1,9.14-9.14,9.14Zm0-14.2c-2.79,0-5.07,2.27-5.07,5.07s2.27,5.07,5.07,5.07,5.07-2.27,5.07-5.07-2.27-5.07-5.07-5.07Z"/>
        </g>
        <g>
          <path class="cls-3" d="m16.56,65.82l13.16-10.22c.75-.59,1.78-.66,2.6-.18l10.11,5.91c.63.37,1.44.25,1.93-.29l13.9-15.14c.85-.93,2.32-.92,3.16.03l12.18,13.62"/>
          <path class="cls-2" d="m16.56,67.86c-.61,0-1.21-.27-1.61-.79-.69-.89-.53-2.17.36-2.86l13.16-10.22c1.41-1.11,3.32-1.24,4.88-.33l9.78,5.71,13.64-14.85c.79-.87,1.89-1.37,3.1-1.35,1.18,0,2.3.52,3.08,1.4l12.17,13.61c.75.84.68,2.13-.16,2.88-.84.75-2.12.68-2.88-.16l-12.18-13.62h-.14s-13.9,15.13-13.9,15.13c-1.14,1.24-3.01,1.52-4.46.67l-10.11-5.9c-.1-.06-.23-.05-.31.02l-13.17,10.23c-.37.29-.81.43-1.25.43Z"/>
        </g>
      </g>
      <g id="player_video_light" data-name="player video light">
        <g>
          <rect class="cls-3" x="275.55" y="195.19" width="91.98" height="53.94" rx="2.14" ry="2.14"/>
          <path class="cls-2" d="m365.4,251.17h-87.7c-2.3,0-4.18-1.87-4.18-4.18v-49.66c0-2.3,1.87-4.18,4.18-4.18h87.7c2.3,0,4.18,1.87,4.18,4.18v49.66c0,2.3-1.87,4.18-4.18,4.18Zm-87.7-53.94c-.06,0-.1.05-.1.1v49.66c0,.06.05.1.1.1h87.7c.06,0,.1-.05.1-.1v-49.66c0-.06-.05-.1-.1-.1h-87.7Z"/>
        </g>
        <g>
          <circle class="cls-1" cx="314.18" cy="240.33" r="2.29"/>
          <g class="cls-4">
            <path class="cls-1" d="m315.84,239.11c.03.39.05.8.05,1.22s-.02.83-.05,1.22h42.27c.48,0,.88-.55.88-1.22h0c0-.67-.39-1.22-.88-1.22h-42.27Z"/>
          </g>
          <path class="cls-1" d="m312.75,240.33c0-.42.01-.83.03-1.22h-27.61c-.39,0-.71.55-.71,1.22h0c0,.67.32,1.22.71,1.22h27.61c-.02-.39-.03-.8-.03-1.22Z"/>
        </g>
        <path class="cls-1" d="m329.42,216.67l-10.6-5.66c-2.1-1.12-4.64.4-4.64,2.78v11.32c0,2.38,2.54,3.91,4.64,2.78l10.6-5.66c2.23-1.19,2.23-4.38,0-5.57Z"/>
      </g>
      <g>
        <g>
          <g>
            <path class="cls-3" d="m14.87,231.68h9.44v20.05h-9.44c-1.89,0-3.43-1.54-3.43-3.43v-13.2c0-1.89,1.54-3.43,3.43-3.43Z"/>
            <path class="cls-2" d="m26.35,253.77h-11.48c-3.01,0-5.46-2.45-5.46-5.46v-13.2c0-3.01,2.45-5.46,5.46-5.46h11.48v24.12Zm-11.48-20.05c-.77,0-1.39.62-1.39,1.39v13.2c0,.77.62,1.39,1.39,1.39h7.4v-15.98h-7.4Z"/>
          </g>
          <g>
            <path class="cls-3" d="m38.64,257.12l-14.33-5.39v-20.05l14.13-6.34c2.21-.99,4.72.63,4.72,3.05v25.59c0,2.34-2.34,3.96-4.52,3.13Z"/>
            <path class="cls-2" d="m39.82,259.37c-.64,0-1.28-.11-1.89-.34l-15.65-5.88v-22.78l15.34-6.88c1.67-.75,3.59-.6,5.13.39,1.54,1,2.46,2.68,2.46,4.52v25.59c0,1.77-.87,3.42-2.32,4.43-.91.63-1.98.96-3.06.96Zm-.46-4.16c.58.22,1.04-.03,1.21-.15.17-.12.56-.46.56-1.08v-25.59c0-.64-.42-.98-.6-1.1s-.67-.36-1.25-.1l-12.93,5.8v17.32l13.01,4.89Z"/>
          </g>
        </g>
        <path class="cls-1" d="m61.51,266.78c-.86,0-1.65-.54-1.93-1.4-.35-1.07.23-2.22,1.29-2.57.64-.21,15.8-5.49,15.8-22.53s-15.64-22.48-15.8-22.53c-1.07-.35-1.65-1.5-1.29-2.57.35-1.07,1.5-1.65,2.57-1.29.19.06,18.59,6.37,18.59,26.4s-18.41,26.34-18.59,26.4c-.21.07-.43.1-.64.1Z"/>
        <path class="cls-1" d="m59.81,252.31c-.79,0-1.53-.46-1.87-1.22-.45-1.03.02-2.23,1.05-2.68.15-.07,4.09-1.98,4.09-8.13s-3.94-8.06-4.11-8.14c-1.01-.47-1.47-1.67-1.01-2.69.46-1.02,1.64-1.48,2.66-1.03.27.12,6.53,2.95,6.53,11.86s-6.26,11.75-6.53,11.86c-.26.12-.54.17-.81.17Z"/>
      </g>
      <g>
        <circle class="cls-3" cx="273.25" cy="92.68" r="8.62"/>
        <path class="cls-1" d="m273.26,103.33c-.17,0-.33,0-.5-.01-2.84-.13-5.46-1.36-7.38-3.46-1.92-2.1-2.9-4.83-2.77-7.67.13-2.84,1.36-5.46,3.46-7.38,2.1-1.92,4.84-2.91,7.67-2.77,2.84.13,5.46,1.36,7.38,3.46,1.92,2.1,2.9,4.83,2.77,7.67-.13,2.84-1.36,5.46-3.46,7.38-1.98,1.8-4.51,2.78-7.17,2.78Zm-.02-17.23c-1.64,0-3.21.6-4.43,1.72-1.3,1.18-2.06,2.8-2.14,4.56-.08,1.76.53,3.44,1.71,4.74,1.18,1.3,2.8,2.06,4.56,2.14,1.76.08,3.44-.53,4.74-1.71,1.3-1.18,2.06-2.8,2.14-4.56.08-1.76-.53-3.44-1.71-4.74-1.18-1.3-2.8-2.06-4.56-2.14-.1,0-.21,0-.31,0Z"/>
      </g>
      <g>
        <circle class="cls-3" cx="33.74" cy="157.04" r="8.62"/>
        <path class="cls-1" d="m33.75,167.69c-.17,0-.33,0-.5-.01-2.84-.13-5.46-1.36-7.38-3.46-1.92-2.1-2.9-4.83-2.77-7.67.27-5.87,5.29-10.43,11.13-10.15,2.84.13,5.46,1.36,7.38,3.46,1.92,2.1,2.9,4.83,2.77,7.67-.13,2.84-1.36,5.46-3.46,7.38-1.98,1.8-4.51,2.78-7.17,2.78Zm-.02-17.23c-3.49,0-6.41,2.76-6.57,6.28-.08,1.76.53,3.44,1.71,4.74,1.18,1.3,2.8,2.06,4.56,2.14,1.76.08,3.44-.53,4.74-1.71,1.3-1.18,2.06-2.8,2.14-4.56.08-1.76-.53-3.44-1.71-4.74-1.18-1.3-2.8-2.06-4.56-2.14-.1,0-.2,0-.31,0Z"/>
      </g>
      <circle class="cls-1" cx="247.27" cy="105.44" r="4.57"/>
      <g>
        <path class="cls-2" d="m144.29,92.17c-1.23,0-2.36-.81-2.72-2.05h0s-.14-.47-.39-1.18c-.52-1.47.25-3.1,1.72-3.62,1.47-.52,3.1.25,3.62,1.72.34.96.5,1.51.5,1.51.43,1.5-.45,3.07-1.95,3.5-.26.07-.52.11-.78.11Z"/>
        <path class="cls-2" d="m137.72,79.14c-.88,0-1.75-.41-2.3-1.18-.48-.67-.99-1.33-1.5-1.95-1-1.21-.83-2.99.38-3.99,1.21-1,3-.82,3.99.38.59.72,1.18,1.47,1.73,2.24.92,1.27.63,3.04-.64,3.96-.5.36-1.08.54-1.66.54Zm-11.81-10.41c-.43,0-.86-.1-1.27-.3-.71-.35-1.44-.68-2.17-.96-1.46-.56-2.19-2.2-1.63-3.66.56-1.46,2.2-2.2,3.66-1.63.9.35,1.8.74,2.68,1.18,1.4.7,1.97,2.4,1.27,3.8-.5.99-1.5,1.57-2.54,1.57Z"/>
        <path class="cls-2" d="m109.04,66.16c-1.4,0-2.61-1.03-2.8-2.45-.21-1.55.88-2.98,2.43-3.19.51-.07,1.02-.13,1.52-.17,1.57-.16,2.94,1,3.09,2.55.15,1.56-1,2.94-2.55,3.09-.43.04-.86.09-1.29.15-.13.02-.26.03-.39.03Z"/>
      </g>
      <g>
        <path class="cls-2" d="m330.38,177.46c-1.07,0-2.09-.61-2.57-1.64-.02-.04-.21-.45-.58-1.14-.73-1.39-.19-3.1,1.19-3.83,1.39-.73,3.1-.19,3.83,1.19.46.88.7,1.38.7,1.38.66,1.42.04,3.11-1.38,3.76-.39.18-.79.27-1.19.27Z"/>
        <path class="cls-2" d="m322.71,165.3c-.85,0-1.69-.38-2.25-1.11-.5-.64-1.01-1.3-1.56-1.96-1-1.21-.82-2.99.39-3.99,1.21-1,3-.82,3.99.39.59.71,1.14,1.42,1.68,2.11.95,1.24.72,3.02-.52,3.97-.51.4-1.12.59-1.73.59Zm-10.73-11.27c-.64,0-1.28-.22-1.81-.66-.63-.52-1.27-1.04-1.94-1.54-1.24-.95-1.48-2.73-.53-3.97.95-1.25,2.73-1.48,3.97-.53.73.56,1.44,1.12,2.12,1.7,1.2,1,1.36,2.79.36,3.99-.56.67-1.37,1.02-2.18,1.02Zm-13.2-8.18c-.37,0-.75-.07-1.11-.23-.75-.32-1.51-.62-2.27-.89-1.47-.53-2.24-2.15-1.71-3.62.53-1.47,2.15-2.24,3.62-1.71.86.31,1.72.65,2.57,1.01,1.44.61,2.11,2.28,1.5,3.72-.46,1.08-1.51,1.73-2.61,1.73Zm-15.1-3.49s-.1,0-.15,0c-.7-.04-1.4-.05-2.12-.05h-.31s-.02,0-.03,0c-1.55,0-2.82-1.25-2.83-2.81-.01-1.57,1.24-2.85,2.81-2.86h.36c.81,0,1.61.02,2.41.06,1.56.08,2.77,1.41,2.69,2.98-.08,1.51-1.33,2.69-2.83,2.69Z"/>
        <path class="cls-2" d="m266.87,144.52c-1.22,0-2.35-.79-2.71-2.02-.45-1.5.4-3.08,1.9-3.53.48-.14.96-.28,1.43-.41,1.5-.41,3.07.48,3.48,1.99.41,1.51-.48,3.07-1.99,3.48-.43.12-.86.24-1.29.37-.27.08-.54.12-.81.12Z"/>
      </g>
      <g>
        <circle class="cls-3" cx="59.81" cy="121.08" r="4.57"/>
        <path class="cls-1" d="m59.81,127.68c-.1,0-.2,0-.3,0-1.76-.08-3.39-.84-4.58-2.15-1.19-1.3-1.8-2.99-1.72-4.76.08-1.76.84-3.39,2.15-4.58,1.3-1.19,2.98-1.8,4.76-1.72,1.76.08,3.39.84,4.58,2.15,1.19,1.3,1.8,2.99,1.72,4.76h0c-.16,3.54-3.09,6.31-6.6,6.31Zm0-9.14c-.63,0-1.23.23-1.71.66-.5.46-.79,1.08-.82,1.76-.03.68.2,1.33.66,1.83.46.5,1.08.79,1.76.82,1.39.05,2.58-1.02,2.65-2.42h0c.03-.68-.2-1.33-.66-1.83-.46-.5-1.08-.79-1.76-.82-.04,0-.08,0-.12,0Z"/>
      </g>
      <g>
        <g>
          <path class="cls-3" d="m233.32,48.61l-.08-35.69c-19.55.04-35.61,16.14-35.61,35.69s16.11,35.69,35.69,35.69,35.69-16.11,35.69-35.69h-35.69Z"/>
          <path class="cls-2" d="m233.32,86.34c-20.8,0-37.73-16.92-37.73-37.73s16.89-37.68,37.64-37.73h0c1.12,0,2.03.91,2.04,2.03l.08,33.66h33.66c1.12,0,2.04.91,2.04,2.04,0,20.8-16.92,37.73-37.73,37.73Zm-2.11-71.32c-17.57,1.1-31.54,15.76-31.54,33.59s15.1,33.66,33.66,33.66,32.54-14.01,33.59-31.62h-33.59c-1.12,0-2.03-.91-2.04-2.03l-.08-33.59Z"/>
        </g>
        <g>
          <path class="cls-3" d="m242.89,37.73l-.2-35.69c.07,0,.13,0,.2,0,19.58,0,35.69,16.11,35.69,35.69h-35.69Z"/>
          <path class="cls-1" d="m278.58,39.77h-35.69c-1.12,0-2.03-.9-2.04-2.02l-.2-35.69c0-1.12.89-2.03,2.01-2.05h.23c20.8,0,37.73,16.92,37.73,37.73,0,1.12-.91,2.04-2.04,2.04Zm-33.67-4.07h31.57c-1.02-17-14.72-30.64-31.75-31.57l.17,31.57Z"/>
        </g>
        <path class="cls-2" d="m239.33,68.37c-.7,0-1.34-.46-1.54-1.17-.24-.85.26-1.73,1.11-1.97,7.27-2.03,12.56-8.44,13.16-15.95.07-.88.84-1.53,1.72-1.46.88.07,1.53.84,1.46,1.72-.72,8.84-6.94,16.39-15.49,18.77-.14.04-.29.06-.43.06Z"/>
        <path class="cls-2" d="m228.18,68.21c-.16,0-.32-.02-.47-.07-4.24-1.32-8.05-4.02-10.73-7.59-2.77-3.7-4.23-8.1-4.23-12.74,0-5.39,2.02-10.53,5.68-14.47,3.64-3.93,8.57-6.32,13.89-6.75.88-.07,1.65.59,1.72,1.46.07.88-.59,1.65-1.46,1.72-9.33.75-16.63,8.67-16.63,18.04,0,7.97,5.11,14.92,12.71,17.28.84.26,1.31,1.16,1.05,2-.21.68-.84,1.12-1.52,1.12Z"/>
      </g>
    </g>
  </g>
</svg>