<?xml version="1.0" encoding="UTF-8"?>
<svg id="Calque_2" data-name="Calque 2" xmlns="http://www.w3.org/2000/svg" viewBox="0 0 454.89 301.17">
  <defs>
    <style>
      .cls-1 {
        fill: #e8563c;
      }

      .cls-1, .cls-2, .cls-3 {
        stroke-width: 0px;
      }

      .cls-2 {
        fill: #294351;
      }

      .cls-3 {
        fill: #fff;
      }
    </style>
  </defs>
  <g id="Calque_1-2" data-name="Calque 1">
    <g>
      <g>
        <g>
          <path class="cls-3" d="m111.92,241.27l.07-32.39c17.74.04,32.32,14.65,32.32,32.39s-14.62,32.39-32.39,32.39-32.39-14.62-32.39-32.39h32.39Z"/>
          <path class="cls-2" d="m111.92,275.45c-18.84,0-34.17-15.33-34.17-34.17,0-.98.8-1.78,1.78-1.78h30.61l.07-30.61c0-.98.8-1.78,1.78-1.78h0c18.8.04,34.1,15.37,34.1,34.17s-15.33,34.17-34.17,34.17Zm-30.56-32.39c.93,16.05,14.28,28.83,30.56,28.83s30.61-13.73,30.61-30.61-12.74-29.59-28.76-30.55l-.07,30.56c0,.98-.8,1.78-1.78,1.78h-30.56Z"/>
        </g>
        <g>
          <path class="cls-3" d="m103.24,231.4l.18-32.39c-.06,0-.12,0-.18,0-17.77,0-32.39,14.62-32.39,32.39h32.39Z"/>
          <path class="cls-1" d="m103.24,233.18h-32.39c-.98,0-1.78-.8-1.78-1.78,0-18.84,15.33-34.17,34.17-34.17.47,0,1.02.19,1.35.53.33.34.61.79.61,1.27l-.18,32.39c0,.98-.8,1.77-1.78,1.77Zm-30.56-3.56h28.78l.16-28.78c-15.54.81-28.05,13.27-28.94,28.78Z"/>
        </g>
        <path class="cls-2" d="m106.47,259.21c.63,0,1.22-.42,1.39-1.06.21-.77-.24-1.57-1.01-1.78-6.59-1.84-11.39-7.66-11.95-14.48-.06-.8-.77-1.39-1.56-1.33-.8.06-1.39.76-1.33,1.56.65,8.03,6.3,14.87,14.06,17.03.13.04.26.05.39.05Z"/>
        <path class="cls-2" d="m116.59,259.06c.14,0,.29-.02.43-.07,3.85-1.2,7.31-3.64,9.74-6.89,2.51-3.36,3.84-7.35,3.84-11.56,0-4.89-1.83-9.55-5.15-13.13-3.3-3.56-7.78-5.74-12.61-6.12-.8-.06-1.5.53-1.56,1.33-.06.8.53,1.5,1.33,1.56,8.46.68,15.09,7.87,15.09,16.37,0,7.23-4.64,13.54-11.54,15.68-.76.24-1.19,1.05-.95,1.81.19.62.77,1.02,1.38,1.02Z"/>
      </g>
      <path class="cls-2" d="m439.27,281.09h-70.42c-3.99,0-7.24-3.25-7.24-7.24v-96.9c0-3.99,3.25-7.24,7.24-7.24h70.42c3.99,0,7.24,3.25,7.24,7.24v96.9c0,3.99-3.25,7.24-7.24,7.24Zm-70.42-107.82c-2.03,0-3.67,1.65-3.67,3.67v96.9c0,2.03,1.65,3.67,3.67,3.67h70.42c2.03,0,3.67-1.65,3.67-3.67v-96.9c0-2.03-1.65-3.67-3.67-3.67h-70.42Z"/>
      <path class="cls-2" d="m98.57,87.26H6.99c-3.86,0-6.99-3.14-6.99-6.99V12.2c0-3.86,3.14-7,6.99-7h91.58c3.86,0,7,3.14,7,7v68.06c0,3.86-3.14,6.99-7,6.99ZM6.99,8.77c-1.89,0-3.43,1.54-3.43,3.43v68.06c0,1.89,1.54,3.43,3.43,3.43h91.58c1.89,0,3.43-1.54,3.43-3.43V12.2c0-1.89-1.54-3.43-3.43-3.43H6.99Z"/>
      <path class="cls-1" d="m61.61,155.21c-2.67,0-5.19-1.01-7.12-2.87-1.98-1.9-3.1-4.46-3.16-7.21-.11-5.67,4.41-10.38,10.08-10.49,2.74-.06,5.35.96,7.33,2.87,1.98,1.9,3.1,4.47,3.16,7.21.11,5.67-4.41,10.38-10.08,10.49-.07,0-.14,0-.21,0Zm0-16.44s-.08,0-.13,0c-3.39.07-6.09,2.88-6.03,6.27.03,1.64.7,3.17,1.89,4.31,1.18,1.14,2.74,1.73,4.38,1.71,3.39-.07,6.09-2.88,6.03-6.27-.03-1.64-.7-3.17-1.89-4.31-1.15-1.11-2.66-1.72-4.26-1.72Z"/>
      <path class="cls-1" d="m323.65,28.18c-1.03,0-2.05-.15-3.06-.47-2.62-.81-4.77-2.6-6.05-5.03s-1.54-5.22-.72-7.84c1.68-5.42,7.46-8.46,12.88-6.78,5.42,1.68,8.46,7.46,6.78,12.88-.81,2.62-2.6,4.77-5.03,6.05-1.5.79-3.13,1.19-4.78,1.19Zm0-16.44c-2.62,0-5.06,1.69-5.88,4.33-.49,1.57-.33,3.23.43,4.69.76,1.45,2.05,2.52,3.62,3.01,1.57.49,3.23.33,4.69-.43,1.45-.76,2.52-2.05,3.01-3.62,1.01-3.24-.81-6.69-4.05-7.7-.6-.19-1.22-.28-1.82-.28Z"/>
      <path class="cls-1" d="m286.99,247.15c-1.54,0-3.11-.23-4.66-.71-4.02-1.25-7.31-3.98-9.27-7.71-1.96-3.72-2.35-7.99-1.1-12,2.57-8.29,11.42-12.94,19.71-10.37,8.29,2.57,12.95,11.42,10.37,19.71h0c-2.09,6.74-8.33,11.08-15.05,11.08Zm.02-27.36c-4.95,0-9.55,3.2-11.1,8.17-.92,2.96-.63,6.1.81,8.85,1.44,2.74,3.87,4.76,6.83,5.68,6.12,1.9,12.63-1.53,14.53-7.65,1.9-6.11-1.53-12.63-7.65-14.53-1.14-.35-2.3-.52-3.43-.52Z"/>
      <circle class="cls-1" cx="284.93" cy="146.51" r="4.8"/>
      <circle class="cls-1" cx="54.5" cy="183.64" r="4.8"/>
      <path class="cls-2" d="m244.92,165.89h-51.19c-1.04,0-1.92-.78-2.05-1.81-.02-.15-1.88-14.93-2.85-20.96-1.44-8.92-6.82-14.54-6.88-14.6-.06-.06-.11-.12-.16-.19-9.19-9.66-14.25-22.3-14.25-35.62,0-28.52,23.2-51.71,51.71-51.71s51.71,23.2,51.71,51.71c0,13.13-4.91,25.59-13.84,35.2-.1.23-.24.44-.41.62-.05.05-5.45,5.74-6.88,14.6-.98,6.03-2.83,20.81-2.85,20.96-.13,1.03-1.01,1.81-2.05,1.81Zm-49.37-4.14h47.55c.53-4.17,1.86-14.47,2.64-19.3,1.37-8.48,5.81-14.3,7.42-16.18.1-.24.24-.47.43-.66,8.54-8.91,13.24-20.59,13.24-32.91,0-26.23-21.34-47.58-47.58-47.58s-47.58,21.34-47.58,47.58c0,12.33,4.71,24.03,13.26,32.94.06.06.12.13.17.2,1.09,1.19,6.3,7.31,7.8,16.62.78,4.82,2.11,15.12,2.64,19.3Z"/>
      <g id="uuid-aacaa3a3-55ba-4c75-814e-882655a0da83">
        <g>
          <path class="cls-1" d="m252.62,93.58c0-8.95-14.66-15.97-33.37-15.97-5.92,0-11.42.71-16.21,1.95,2.45-10.61,8.03-18.21,14.34-18.21,2.53,0,5.03,1.26,7.29,3.58l-4,2.89c-.47.34-.58,1-.24,1.47.11.16.26.26.42.34l11.82,5.29c.53.24,1.16,0,1.39-.53.08-.16.11-.34.08-.53l-1.34-12.87c-.05-.58-.58-1-1.16-.95-.18,0-.37.08-.5.18l-3.84,2.79c-2.95-3.16-6.34-4.89-9.92-4.89-8.45,0-15.42,9.32-17.92,22.55-8.29,2.87-13.61,7.55-13.61,12.92,0,4.42,3.53,8.5,9.89,11.47h0c1.55.66,3.16,1.24,4.76,1.74,3.11,10.79,9.39,18.05,16.84,18.05,4.79-.29,9.16-2.89,11.66-7,.53-.71.37-1.74-.37-2.26s-1.74-.37-2.26.37c-1.95,3.21-5.32,5.32-9.05,5.66-5.37,0-10.24-5.53-13.05-13.74,4.87,1.21,9.87,1.76,14.92,1.66h.37c.89,0,1.61-.71,1.61-1.61s-.71-1.61-1.61-1.61h-.37c-5.42.13-10.82-.61-16-2.08-.97-3.92-1.55-8.24-1.55-12.79,0-2.89.24-5.71.66-8.39,4.66-1.37,10.37-2.24,16.87-2.24,18.03,0,30.13,6.58,30.13,12.74,0,3.32-3.37,6.55-8.95,8.92l-1.21-4.47c-.16-.55-.74-.89-1.29-.74-.18.05-.34.13-.47.26l-9.11,9.18c-.42.42-.39,1.08,0,1.5.13.13.29.21.47.26l12.53,3.29c.55.16,1.13-.18,1.29-.74.05-.18.05-.37,0-.55l-1.34-4.87c7.13-2.97,11.32-7.29,11.32-12.08l.08.03Zm-52.97,9.53c-.84-.32-1.66-.63-2.5-.97h0c-5.11-2.37-8.05-5.5-8.05-8.55,0-3.37,3.63-6.84,9.82-9.32-.29,2.32-.45,4.74-.45,7.21,0,4.11.42,8,1.16,11.63h.03Z"/>
          <path class="cls-1" d="m217.42,125.91c-7.61,0-14.35-6.98-17.74-18.27-1.51-.49-2.96-1.02-4.33-1.6-6.8-3.17-10.53-7.58-10.53-12.43,0-5.57,5-10.54,13.74-13.7,2.78-13.88,10.13-22.81,18.82-22.81,3.54,0,7,1.57,10.04,4.57l3.12-2.26c.29-.23.71-.38,1.11-.38.45-.05,1,.12,1.43.47.44.36.71.86.76,1.42l1.34,12.85c.05.35,0,.74-.18,1.09-.46,1.02-1.69,1.49-2.75,1.01l-11.81-5.29c-.4-.2-.67-.43-.86-.71-.65-.9-.44-2.21.49-2.89l2.99-2.16c-1.84-1.6-3.78-2.44-5.67-2.44-5.28,0-10.36,6.27-12.92,15.77,4.62-1.04,9.59-1.57,14.79-1.57,19.29,0,34.4,7.47,34.4,17.01v1.43l-.18-.06c-.67,4.43-4.51,8.38-11.01,11.28l1.1,4c.1.36.1.74,0,1.11-.32,1.11-1.47,1.76-2.57,1.45l-12.5-3.28c-.39-.11-.69-.28-.94-.53-.81-.87-.8-2.16,0-2.96l9.1-9.18c.26-.25.56-.42.93-.53.53-.15,1.1-.08,1.59.2.48.28.82.72.97,1.25l.9,3.32c4.55-2.15,7.23-4.9,7.23-7.48,0-5.53-11.95-11.7-29.1-11.7-5.7,0-11.2.7-15.94,2.01-.36,2.52-.55,5.07-.55,7.58,0,4.05.46,8.07,1.38,11.96,5.02,1.37,10.13,2.01,15.11,1.88h.39c1.46,0,2.64,1.18,2.64,2.64s-1.18,2.64-2.64,2.64h-.37c-4.48.1-8.94-.33-13.29-1.25,2.8,7,7.08,11.26,11.42,11.26,3.31-.31,6.4-2.24,8.17-5.16.46-.65,1.07-1.03,1.77-1.14.69-.12,1.4.05,1.98.47.58.42.97,1.04,1.08,1.75.11.71-.06,1.41-.48,1.98-2.62,4.3-7.28,7.11-12.43,7.42h0Zm-.03-66.74c-7.66,0-14.45,8.72-16.91,21.71l-.11.59-.57.2c-8.08,2.8-12.91,7.26-12.91,11.94,0,3.99,3.3,7.74,9.3,10.54,1.43.61,3,1.18,4.63,1.69l.53.17.15.54c3.07,10.67,9.14,17.31,15.85,17.31,4.41-.27,8.46-2.7,10.78-6.5.17-.24.17-.41.15-.5-.01-.09-.06-.26-.24-.39-.14-.1-.3-.13-.44-.11-.11.02-.26.07-.38.24-2.07,3.42-5.75,5.72-9.8,6.09h0c-5.78,0-11.02-5.4-14.12-14.43l-.62-1.8,1.84.46c4.76,1.18,9.69,1.73,14.65,1.63h.39c.33,0,.57-.25.57-.57s-.25-.57-.57-.57h-.37c-5.38.13-10.88-.58-16.28-2.12l-.58-.16-.14-.58c-.03-.12-.06-.25-.09-.37h-3.33l-.06-.28c-.65-.25-1.3-.5-1.96-.77-5.55-2.57-8.7-6.03-8.7-9.51,0-3.87,3.81-7.62,10.47-10.28l1.63-.65-.22,1.74c-.29,2.33-.44,4.72-.44,7.08,0,3.67.34,7.31,1.02,10.85l1.28.48c-.79-3.7-1.19-7.5-1.19-11.34,0-2.84.23-5.72.67-8.56l.1-.65.63-.18c5.07-1.49,11.01-2.28,17.16-2.28,19.25,0,31.17,7.15,31.17,13.77,0,3.69-3.49,7.29-9.58,9.87l-1.09.46-1.52-5.62-9.14,9.17,12.53,3.32-1.55-5.76.84-.35c6.79-2.83,10.68-6.88,10.68-11.12v-1.02c-1.17-7.75-15.19-13.89-32.25-13.89-5.67,0-11.03.64-15.95,1.91l-1.65.43.38-1.66c2.66-11.55,8.69-19.01,15.35-19.01,2.77,0,5.54,1.35,8.03,3.89l.84.86-4.97,3.6,11.82,5.32-1.32-12.87s0-.05.02-.06l-4.62,3.36-.62-.67c-2.79-2.99-5.96-4.57-9.17-4.57Zm-19.7,26.75c-4.71,2.19-7.56,5.05-7.56,7.66s2.79,5.45,7.45,7.61c.23.09.45.18.68.27-.55-3.27-.84-6.63-.84-9.99,0-1.85.09-3.71.26-5.56Z"/>
        </g>
      </g>
      <path class="cls-2" d="m243.93,182.68h-47.65c-5.93,0-10.76-4.83-10.76-10.76v-3.84c0-3.49,2.84-6.33,6.33-6.33h56.51c3.49,0,6.33,2.84,6.33,6.33v3.84c0,5.93-4.83,10.76-10.76,10.76Zm-52.08-16.79c-1.21,0-2.19.98-2.19,2.19v3.84c0,3.65,2.97,6.62,6.62,6.62h47.65c3.65,0,6.62-2.97,6.62-6.62v-3.84c0-1.21-.98-2.19-2.19-2.19h-56.51Z"/>
      <path class="cls-2" d="m231.26,205.06h-22.3c-8.36,0-15.15-6.8-15.15-15.16v-5.05c0-3.48,2.83-6.31,6.31-6.31h39.98c3.48,0,6.31,2.83,6.31,6.31v5.05c0,8.36-6.8,15.16-15.15,15.16Zm-31.14-22.38c-1.2,0-2.18.98-2.18,2.18v5.05c0,6.08,4.94,11.02,11.02,11.02h22.3c6.07,0,11.02-4.94,11.02-11.02v-5.05c0-1.2-.98-2.18-2.18-2.18h-39.98Z"/>
      <path class="cls-2" d="m224.97,216.74h-9.73c-4.71,0-8.53-3.83-8.53-8.54v-3.12c0-2.3,1.87-4.17,4.17-4.17h18.47c2.3,0,4.17,1.87,4.17,4.17v3.12c0,4.71-3.83,8.54-8.53,8.54Zm-14.1-11.69l-.03,3.15c0,2.42,1.97,4.4,4.4,4.4h9.73c2.42,0,4.4-1.97,4.4-4.4v-3.12l-18.5-.03Z"/>
      <path class="cls-2" d="m207,191.53h-11.13c-1.14,0-2.07-.93-2.07-2.07s.93-2.07,2.07-2.07h11.13c1.14,0,2.07.93,2.07,2.07s-.93,2.07-2.07,2.07Z"/>
      <path class="cls-2" d="m205.22,154.81h-11.13c-1.14,0-2.07-.93-2.07-2.07s.93-2.07,2.07-2.07h11.13c1.14,0,2.07.93,2.07,2.07s-.93,2.07-2.07,2.07Z"/>
      <path class="cls-2" d="m203.11,143.73h-11.13c-1.14,0-2.07-.93-2.07-2.07s.93-2.07,2.07-2.07h11.13c1.14,0,2.07.93,2.07,2.07s-.93,2.07-2.07,2.07Z"/>
      <g>
        <path class="cls-2" d="m64.28,101.02c-.54,0-1.08-.21-1.49-.63-.51-.53-.77-.83-.77-.83-.75-.86-.66-2.17.2-2.92.86-.75,2.16-.66,2.92.2.02.02.23.26.63.68.79.82.77,2.13-.06,2.93-.4.39-.92.58-1.43.58Z"/>
        <path class="cls-2" d="m146.58,131.93h-.21c-.66,0-1.31,0-1.96-.01-1.14-.02-2.06-.95-2.04-2.1.01-1.13.94-2.04,2.07-2.04,0,0,.02,0,.03,0,.63,0,1.27.01,1.91.01h.21c1.14,0,2.07.93,2.07,2.07s-.93,2.07-2.07,2.07Zm-12.86-.57c-.06,0-.13,0-.19,0-.73-.07-1.45-.14-2.17-.22-1.14-.12-1.96-1.14-1.83-2.28s1.16-1.95,2.28-1.83c.7.08,1.4.15,2.1.21,1.14.1,1.98,1.11,1.87,2.25-.1,1.07-1,1.88-2.06,1.88Zm-12.74-1.8c-.13,0-.26-.01-.39-.04-.72-.14-1.43-.28-2.14-.43-1.12-.24-1.83-1.33-1.6-2.45s1.34-1.83,2.45-1.6c.68.14,1.37.28,2.07.42,1.12.22,1.86,1.3,1.64,2.42-.19.99-1.06,1.68-2.03,1.68Zm-12.5-3.08c-.2,0-.4-.03-.6-.09-.7-.21-1.4-.43-2.08-.65-1.09-.35-1.68-1.52-1.33-2.6.35-1.09,1.52-1.69,2.6-1.33.66.21,1.33.42,2.01.63,1.09.33,1.71,1.49,1.38,2.58-.27.89-1.09,1.47-1.98,1.47Zm-12.1-4.39c-.27,0-.54-.05-.81-.17-.68-.29-1.35-.58-2-.87-1.04-.47-1.51-1.69-1.04-2.73.47-1.04,1.69-1.51,2.73-1.04.63.28,1.28.56,1.93.84,1.05.45,1.54,1.66,1.09,2.71-.34.79-1.1,1.26-1.9,1.26Zm-11.54-5.69c-.35,0-.69-.09-1.02-.27-.64-.37-1.28-.73-1.89-1.09-.98-.58-1.31-1.85-.73-2.83.58-.98,1.85-1.31,2.83-.73.59.35,1.2.7,1.82,1.06.99.56,1.34,1.82.78,2.82-.38.67-1.08,1.05-1.8,1.05Zm-10.81-7c-.43,0-.86-.13-1.23-.41-.61-.45-1.19-.89-1.75-1.32-.9-.7-1.07-2-.37-2.9s2-1.07,2.9-.37c.53.41,1.09.84,1.68,1.27.92.68,1.11,1.97.43,2.89-.41.55-1.03.84-1.66.84Z"/>
        <path class="cls-2" d="m157.32,131.53c-1.07,0-1.98-.83-2.06-1.92-.08-1.14.77-2.13,1.91-2.22l1.02-.08c1.14-.1,2.14.75,2.23,1.89s-.75,2.14-1.89,2.23l-1.05.08c-.05,0-.1,0-.16,0Z"/>
      </g>
      <g>
        <path class="cls-2" d="m413.09,154.82c-.7,0-1.39-.36-1.78-1-.59-.98-.28-2.24.7-2.83h0s.3-.18.75-.5c.94-.65,2.22-.42,2.88.52.65.94.42,2.23-.51,2.88-.62.43-.97.64-.97.64-.33.2-.7.29-1.06.29Z"/>
        <path class="cls-2" d="m421.08,147.84c-.49,0-.98-.17-1.38-.53-.85-.76-.92-2.07-.16-2.92.4-.44.8-.91,1.2-1.4.73-.88,2.03-1.01,2.91-.28.88.73,1.01,2.03.28,2.91-.44.53-.87,1.04-1.31,1.52-.41.46-.97.69-1.54.69Zm6.52-9.48c-.32,0-.64-.07-.94-.23-1.02-.52-1.42-1.77-.9-2.78.27-.54.54-1.09.8-1.65.47-1.04,1.7-1.49,2.74-1.02,1.04.48,1.5,1.7,1.02,2.74-.28.62-.57,1.22-.87,1.81-.37.72-1.09,1.13-1.84,1.13Zm3.8-10.86c-.14,0-.28-.01-.41-.04-1.12-.23-1.84-1.32-1.62-2.44.12-.59.23-1.19.33-1.8.18-1.13,1.25-1.9,2.37-1.72,1.13.18,1.9,1.24,1.72,2.37-.11.67-.23,1.33-.36,1.98-.2.98-1.06,1.66-2.02,1.66Zm.83-11.48c-1.1,0-2.01-.86-2.06-1.96-.03-.61-.07-1.22-.13-1.84-.1-1.14.74-2.14,1.88-2.24,1.15-.09,2.14.74,2.24,1.88.06.67.1,1.34.14,1.99.06,1.14-.82,2.11-1.96,2.17-.04,0-.07,0-.11,0Z"/>
        <path class="cls-2" d="m430.42,104.61c-.92,0-1.76-.62-2-1.55-.08-.32-.17-.65-.26-.97-.31-1.1.34-2.24,1.44-2.55,1.1-.31,2.24.34,2.55,1.44.1.35.19.69.28,1.04.29,1.11-.37,2.24-1.48,2.52-.18.05-.35.07-.53.07Z"/>
      </g>
      <g>
        <path class="cls-2" d="m284.93,110.05c-.81,0-1.59-.48-1.91-1.28-.43-1.06.07-2.26,1.12-2.7,0,0,.36-.15,1.05-.4,1.07-.39,2.26.17,2.65,1.24.39,1.07-.17,2.26-1.24,2.65-.56.2-.86.32-.88.33-.26.1-.52.15-.78.15Z"/>
        <path class="cls-2" d="m396.36,145.62c-.61,0-1.21-.27-1.62-.78-.43-.53-.86-1.06-1.29-1.58-.73-.88-.6-2.19.28-2.91.88-.73,2.19-.6,2.91.28.44.54.88,1.08,1.32,1.63.71.89.57,2.19-.32,2.91-.38.31-.84.45-1.29.45Zm-8.18-9.33c-.54,0-1.08-.21-1.49-.63-.47-.49-.95-.98-1.43-1.45-.81-.81-.8-2.12,0-2.93.81-.81,2.12-.8,2.93,0,.49.49.98.99,1.47,1.5.79.82.77,2.13-.05,2.93-.4.39-.92.58-1.44.58Zm-9.06-8.47c-.47,0-.94-.16-1.33-.48-.52-.44-1.04-.87-1.57-1.29-.89-.72-1.03-2.02-.31-2.91.72-.89,2.02-1.03,2.91-.31.54.44,1.09.88,1.63,1.34.88.73.99,2.04.26,2.91-.41.49-1,.74-1.59.74Zm-9.95-7.41c-.39,0-.78-.11-1.13-.34-.57-.37-1.14-.74-1.71-1.09-.97-.61-1.26-1.88-.65-2.85.61-.97,1.89-1.26,2.85-.65.59.37,1.18.75,1.78,1.14.96.63,1.22,1.91.6,2.86-.4.61-1.06.93-1.73.93Zm-10.78-6.15c-.3,0-.61-.07-.91-.21-.61-.3-1.22-.59-1.83-.87-1.04-.48-1.49-1.71-1.01-2.75.48-1.04,1.71-1.49,2.75-1.01.63.29,1.27.6,1.91.91,1.03.5,1.45,1.74.95,2.77-.36.73-1.1,1.16-1.86,1.16Zm-11.48-4.7c-.22,0-.44-.03-.65-.11-.64-.22-1.29-.42-1.93-.62-1.09-.34-1.7-1.5-1.36-2.59.34-1.09,1.5-1.7,2.59-1.37.67.21,1.34.42,2.01.65,1.08.36,1.67,1.53,1.31,2.62-.29.87-1.1,1.42-1.96,1.42Zm-51.07-2.65c-.95,0-1.81-.66-2.02-1.63-.24-1.12.47-2.22,1.59-2.46.66-.14,1.36-.28,2.07-.42,1.11-.21,2.21.52,2.42,1.64.22,1.12-.52,2.21-1.64,2.42-.68.13-1.35.27-1.98.4-.15.03-.29.05-.44.05Zm39.07-.49c-.13,0-.26-.01-.39-.04-.67-.13-1.33-.25-1.99-.36-1.13-.19-1.88-1.26-1.69-2.39.19-1.13,1.27-1.89,2.39-1.69.69.12,1.39.24,2.08.38,1.12.22,1.86,1.3,1.64,2.42-.19.99-1.06,1.68-2.03,1.68Zm-26.79-1.34c-1.06,0-1.96-.81-2.06-1.89-.1-1.14.75-2.14,1.88-2.24.69-.06,1.39-.11,2.1-.16,1.12-.08,2.13.79,2.2,1.93.08,1.14-.79,2.13-1.93,2.2-.69.05-1.36.1-2.02.15-.06,0-.12,0-.18,0Zm14.48-.2s-.08,0-.13,0c-.68-.04-1.36-.07-2.02-.1-1.14-.04-2.03-1-1.99-2.15s1.01-2.05,2.15-1.99c.7.03,1.4.06,2.11.1,1.14.07,2.01,1.05,1.94,2.19-.07,1.1-.98,1.94-2.06,1.94Z"/>
        <path class="cls-2" d="m403.14,154.82c-.66,0-1.31-.32-1.71-.91l-.57-.84c-.65-.94-.42-2.23.52-2.88.94-.65,2.23-.42,2.88.52l.6.88c.64.95.39,2.23-.55,2.87-.36.24-.76.36-1.16.36Z"/>
      </g>
      <g>
        <path class="cls-2" d="m159.42,145.64c-.9,0-1.72-.59-1.99-1.49-.32-1.1.31-2.25,1.41-2.56.69-.2,1.06-.29,1.06-.29,1.1-.27,2.23.39,2.51,1.5.28,1.11-.39,2.23-1.5,2.51-.02,0-.34.09-.92.26-.19.06-.39.08-.58.08Z"/>
        <path class="cls-2" d="m116.69,175.65c-.39,0-.77-.11-1.12-.33-.96-.62-1.23-1.9-.61-2.86.42-.65.85-1.28,1.29-1.91.66-.94,1.95-1.16,2.88-.5.93.66,1.16,1.95.5,2.88-.41.58-.81,1.17-1.2,1.77-.4.61-1.06.95-1.74.95Zm8.44-10.26c-.54,0-1.07-.21-1.48-.62-.8-.82-.79-2.13.03-2.93.55-.54,1.1-1.06,1.66-1.57.84-.77,2.15-.72,2.92.12.77.84.72,2.15-.12,2.92-.53.48-1.05.98-1.56,1.48-.4.4-.93.59-1.45.59Zm10.33-8.38c-.66,0-1.32-.32-1.72-.91-.64-.95-.39-2.23.56-2.87.64-.43,1.27-.84,1.9-1.25.96-.61,2.24-.33,2.86.63.61.96.33,2.24-.63,2.86-.6.38-1.2.78-1.81,1.19-.36.24-.76.35-1.16.35Zm11.57-6.57c-.77,0-1.52-.44-1.87-1.18-.49-1.03-.05-2.27.98-2.76.71-.33,1.39-.65,2.06-.95,1.04-.47,2.27,0,2.73,1.05.47,1.04,0,2.27-1.05,2.73-.64.29-1.3.59-1.97.91-.29.14-.59.2-.89.2Z"/>
        <path class="cls-2" d="m111.28,186.49c-.23,0-.47-.04-.71-.12-1.07-.39-1.63-1.57-1.24-2.65.12-.34.25-.67.38-1.01.41-1.07,1.61-1.6,2.67-1.19,1.07.41,1.6,1.61,1.19,2.67-.12.31-.24.62-.35.93-.3.84-1.1,1.36-1.94,1.36Z"/>
      </g>
      <path class="cls-1" d="m429.46,190.66h-51.79c-.98,0-1.78-.8-1.78-1.78s.8-1.78,1.78-1.78h51.79c.98,0,1.78.8,1.78,1.78s-.8,1.78-1.78,1.78Z"/>
      <path class="cls-1" d="m429.46,201.79h-51.79c-.98,0-1.78-.8-1.78-1.78s.8-1.78,1.78-1.78h51.79c.98,0,1.78.8,1.78,1.78s-.8,1.78-1.78,1.78Z"/>
      <path class="cls-1" d="m429.46,212.91h-51.79c-.98,0-1.78-.8-1.78-1.78s.8-1.78,1.78-1.78h51.79c.98,0,1.78.8,1.78,1.78s-.8,1.78-1.78,1.78Z"/>
      <path class="cls-1" d="m419.53,224.04h-41.86c-.98,0-1.78-.8-1.78-1.78s.8-1.78,1.78-1.78h41.86c.98,0,1.78.8,1.78,1.78s-.8,1.78-1.78,1.78Z"/>
      <path class="cls-1" d="m429.46,241.95h-51.79c-.98,0-1.78-.8-1.78-1.78s.8-1.78,1.78-1.78h51.79c.98,0,1.78.8,1.78,1.78s-.8,1.78-1.78,1.78Z"/>
      <path class="cls-1" d="m419.53,253.08h-41.86c-.98,0-1.78-.8-1.78-1.78s.8-1.78,1.78-1.78h41.86c.98,0,1.78.8,1.78,1.78s-.8,1.78-1.78,1.78Z"/>
      <g>
        <polygon class="cls-3" points="453.11 277.64 422.14 261.8 427.8 296.12 435.83 290.25 442.5 299.39 451.26 293 444.59 283.86 453.11 277.64"/>
        <path class="cls-2" d="m442.5,301.17c-.09,0-.18,0-.27-.02-.47-.07-.89-.33-1.16-.71l-5.62-7.7-6.6,4.82c-.5.36-1.15.44-1.73.21-.57-.23-.98-.75-1.08-1.36l-5.65-34.32c-.11-.66.16-1.33.71-1.73.54-.4,1.26-.46,1.86-.15l30.96,15.84c.55.28.92.83.97,1.45.05.62-.23,1.22-.73,1.58l-7.08,5.17,5.62,7.7c.58.79.41,1.91-.39,2.49l-8.75,6.39c-.31.22-.68.34-1.05.34Zm-6.67-12.7c.09,0,.18,0,.27.02.47.07.89.33,1.16.71l5.62,7.7,5.87-4.29-5.62-7.7c-.58-.79-.41-1.91.39-2.49l6.18-4.51-25.24-12.91,4.61,27.97,5.7-4.16c.31-.22.68-.34,1.05-.34Z"/>
      </g>
      <g>
        <circle class="cls-3" cx="31.38" cy="27.95" r="10.07"/>
        <path class="cls-1" d="m31.38,39.8c-6.53,0-11.85-5.32-11.85-11.85s5.32-11.85,11.85-11.85,11.85,5.32,11.85,11.85-5.32,11.85-11.85,11.85Zm0-20.14c-4.57,0-8.29,3.72-8.29,8.29s3.72,8.29,8.29,8.29,8.29-3.72,8.29-8.29-3.72-8.29-8.29-8.29Z"/>
      </g>
      <g>
        <path class="cls-3" d="m11.99,70.13l18.65-14.5c1.06-.83,2.52-.93,3.69-.25l14.34,8.37c.9.52,2.04.35,2.74-.41l19.7-21.46c1.21-1.32,3.29-1.3,4.48.04l17.26,19.31"/>
        <path class="cls-1" d="m11.99,71.91c-.53,0-1.06-.24-1.41-.69-.6-.78-.46-1.9.31-2.5l18.65-14.5c1.64-1.29,3.87-1.44,5.68-.39l14.34,8.37c.17.1.39.07.53-.08l19.7-21.46c.91-.99,2.19-1.55,3.53-1.55.01,0,.03,0,.04,0,1.36.01,2.65.6,3.55,1.61l17.26,19.3c.66.73.59,1.86-.14,2.52-.73.66-1.86.59-2.52-.14l-17.26-19.31c-.33-.37-.7-.42-.93-.42-.21,0-.59.05-.91.4l-19.7,21.46c-1.26,1.37-3.34,1.69-4.95.75l-14.34-8.37c-.53-.31-1.2-.27-1.69.12l-18.66,14.5c-.33.25-.71.37-1.09.37Z"/>
      </g>
      <circle class="cls-1" cx="411.75" cy="58.14" r="21.67"/>
      <path class="cls-2" d="m411.75,86.85c-20.76,0-37.61-17.37-37.61-28.71s16.85-28.71,37.61-28.71,37.61,17.64,37.61,28.71c0,9.7-17.03,28.71-37.61,28.71Zm0-54.68c-18.91,0-34.86,15.95-34.86,25.97s15.95,25.97,34.86,25.97,34.86-17.42,34.86-25.97-15.07-25.97-34.86-25.97Z"/>
      <circle class="cls-2" cx="411.75" cy="57.2" r="8.61"/>
      <circle class="cls-3" cx="418.71" cy="49.28" r="5.63"/>
      <g>
        <path class="cls-2" d="m194.37,17.42c-1.09,0-1.98-.89-1.98-1.98V1.98c0-1.09.89-1.98,1.98-1.98s1.98.89,1.98,1.98v13.46c0,1.09-.89,1.98-1.98,1.98Z"/>
        <path class="cls-2" d="m201.11,10.69h-13.46c-1.09,0-1.98-.89-1.98-1.98s.89-1.98,1.98-1.98h13.46c1.09,0,1.98.89,1.98,1.98s-.89,1.98-1.98,1.98Z"/>
      </g>
      <g>
        <path class="cls-2" d="m271.33,282.37c-1.09,0-1.98-.89-1.98-1.98v-13.46c0-1.09.89-1.98,1.98-1.98s1.98.89,1.98,1.98v13.46c0,1.09-.89,1.98-1.98,1.98Z"/>
        <path class="cls-2" d="m278.06,275.64h-13.46c-1.09,0-1.98-.89-1.98-1.98s.89-1.98,1.98-1.98h13.46c1.09,0,1.98.89,1.98,1.98s-.89,1.98-1.98,1.98Z"/>
      </g>
      <g>
        <path class="cls-2" d="m196.07,253.23c-1.09,0-1.98-.89-1.98-1.98v-13.46c0-1.09.89-1.98,1.98-1.98s1.98.89,1.98,1.98v13.46c0,1.09-.89,1.98-1.98,1.98Z"/>
        <path class="cls-2" d="m202.8,246.5h-13.46c-1.09,0-1.98-.89-1.98-1.98s.89-1.98,1.98-1.98h13.46c1.09,0,1.98.89,1.98,1.98s-.89,1.98-1.98,1.98Z"/>
      </g>
    </g>
  </g>
</svg>