<?xml version="1.0" encoding="UTF-8"?>
<svg id="Calque_2" data-name="Calque 2" xmlns="http://www.w3.org/2000/svg" viewBox="0 0 314.8 281.13">
  <defs>
    <style>
      .cls-1 {
        opacity: .5;
      }

      .cls-2 {
        font-family: SpaceGrotesk-SemiBold, 'Space Grotesk';
        font-size: 49.33px;
        font-weight: 600;
      }

      .cls-2, .cls-3 {
        fill: #4974f3;
      }

      .cls-4 {
        fill: #294351;
      }

      .cls-4, .cls-5, .cls-3 {
        stroke-width: 0px;
      }

      .cls-5 {
        fill: #fff;
      }

      .cls-6 {
        letter-spacing: .02em;
      }
    </style>
  </defs>
  <g id="Calque_1-2" data-name="Calque 1">
    <g>
      <g>
        <rect class="cls-5" x="2.04" y="2.04" width="178.26" height="250.67"/>
        <path class="cls-4" d="m182.33,254.74H0V0h182.33v254.74Zm-178.26-4.07h174.19V4.07H4.07v246.59Z"/>
      </g>
      <g id="player_video_light" data-name="player video light">
        <g>
          <rect class="cls-5" x="165.3" y="60.33" width="147.47" height="86.48" rx="3.43" ry="3.43"/>
          <path class="cls-4" d="m309.33,148.85h-140.61c-3.01,0-5.47-2.45-5.47-5.47V63.76c0-3.01,2.45-5.47,5.47-5.47h140.61c3.01,0,5.47,2.45,5.47,5.47v79.62c0,3.01-2.45,5.47-5.47,5.47ZM168.73,62.37c-.77,0-1.39.63-1.39,1.39v79.62c0,.77.63,1.39,1.39,1.39h140.61c.77,0,1.39-.63,1.39-1.39V63.76c0-.77-.63-1.39-1.39-1.39h-140.61Z"/>
        </g>
        <g>
          <circle class="cls-3" cx="227.21" cy="132.71" r="3.68"/>
          <g class="cls-1">
            <path class="cls-3" d="m229.89,130.75c.05.63.08,1.28.08,1.96s-.03,1.33-.08,1.96h67.77c.78,0,1.41-.88,1.41-1.96h0c0-1.08-.63-1.96-1.41-1.96h-67.77Z"/>
          </g>
          <path class="cls-3" d="m224.93,132.71c0-.67.02-1.33.05-1.96h-44.26c-.63,0-1.15.88-1.15,1.96h0c0,1.08.51,1.96,1.15,1.96h44.26c-.03-.63-.05-1.28-.05-1.96Z"/>
        </g>
        <path class="cls-3" d="m251.66,94.78l-17-9.07c-3.37-1.8-7.44.64-7.44,4.46v18.15c0,3.82,4.07,6.26,7.44,4.46l17-9.07c3.57-1.9,3.57-7.02,0-8.93Z"/>
      </g>
      <g>
        <g id="player">
          <g>
            <rect class="cls-5" x="111.61" y="195.28" width="122.44" height="83.81" rx="4.1" ry="4.1"/>
            <path class="cls-4" d="m229.96,281.13h-114.25c-3.38,0-6.13-2.75-6.13-6.13v-75.62c0-3.38,2.75-6.13,6.13-6.13h114.25c3.38,0,6.13,2.75,6.13,6.13v75.62c0,3.38-2.75,6.13-6.13,6.13Zm-114.25-83.81c-1.14,0-2.06.92-2.06,2.06v75.62c0,1.14.92,2.06,2.06,2.06h114.25c1.14,0,2.06-.92,2.06-2.06v-75.62c0-1.14-.92-2.06-2.06-2.06h-114.25Z"/>
          </g>
        </g>
        <g>
          <circle class="cls-5" cx="137.87" cy="219.83" r="10.1"/>
          <path class="cls-3" d="m137.88,231.97c-6.69,0-12.14-5.45-12.14-12.14s5.44-12.14,12.14-12.14,12.14,5.45,12.14,12.14-5.44,12.14-12.14,12.14Zm0-20.2c-4.45,0-8.07,3.62-8.07,8.06s3.62,8.06,8.07,8.06,8.07-3.62,8.07-8.06-3.62-8.06-8.07-8.06Z"/>
        </g>
        <g>
          <path class="cls-5" d="m132.27,262.15l18.71-14.54c1.06-.84,2.53-.94,3.7-.25l14.39,8.4c.9.53,2.04.35,2.75-.41l19.77-21.53c1.21-1.32,3.3-1.3,4.49.04l17.32,19.37"/>
          <path class="cls-4" d="m133.52,263.76l-2.5-3.22,18.71-14.54c1.72-1.35,4.07-1.52,5.97-.41l14.39,8.4c.07.04.17.03.22-.03l19.77-21.53c.96-1.04,2.32-1.64,3.73-1.64h.04c1.43.01,2.8.63,3.74,1.7l17.32,19.36-3.04,2.71-17.32-19.37c-.26-.29-.57-.34-.74-.34-.17,0-.48.04-.74.32l-19.77,21.53c-1.34,1.46-3.56,1.8-5.28.79l-14.38-8.4c-.45-.26-1-.22-1.41.1l-18.72,14.55Z"/>
        </g>
      </g>
      <text class="cls-2" transform="translate(27.57 79.3)"><tspan x="0" y="0">&lt;</tspan><tspan class="cls-6" x="30.59" y="-4.29">/</tspan><tspan class="cls-6" x="50.52" y="0">&gt;</tspan></text>
      <path class="cls-4" d="m147.93,108.55H32.51c-1.12,0-2.04-.91-2.04-2.04s.91-2.04,2.04-2.04h115.42c1.12,0,2.04.91,2.04,2.04s-.91,2.04-2.04,2.04Z"/>
      <path class="cls-4" d="m147.93,128.43H32.51c-1.12,0-2.04-.91-2.04-2.04s.91-2.04,2.04-2.04h115.42c1.12,0,2.04.91,2.04,2.04s-.91,2.04-2.04,2.04Z"/>
      <path class="cls-4" d="m147.93,150.78H32.51c-1.12,0-2.04-.91-2.04-2.04s.91-2.04,2.04-2.04h115.42c1.12,0,2.04.91,2.04,2.04s-.91,2.04-2.04,2.04Z"/>
      <path class="cls-4" d="m126.45,169.98H32.51c-1.12,0-2.04-.91-2.04-2.04s.91-2.04,2.04-2.04h93.94c1.12,0,2.04.91,2.04,2.04s-.91,2.04-2.04,2.04Z"/>
      <path class="cls-4" d="m126.45,189.17H32.51c-1.12,0-2.04-.91-2.04-2.04s.91-2.04,2.04-2.04h93.94c1.12,0,2.04.91,2.04,2.04s-.91,2.04-2.04,2.04Z"/>
      <path class="cls-4" d="m90.22,208.37h-57.71c-1.12,0-2.04-.91-2.04-2.04s.91-2.04,2.04-2.04h57.71c1.12,0,2.04.91,2.04,2.04s-.91,2.04-2.04,2.04Z"/>
      <rect class="cls-4" x="2.04" y="19.23" width="178.26" height="4.07"/>
    </g>
  </g>
</svg>