<?xml version="1.0" encoding="UTF-8"?>
<svg id="Calque_2" data-name="Calque 2" xmlns="http://www.w3.org/2000/svg" viewBox="0 0 404.24 241.61">
  <defs>
    <style>
      .cls-1 {
        fill-rule: evenodd;
      }

      .cls-1, .cls-2, .cls-3, .cls-4 {
        stroke-width: 0px;
      }

      .cls-1, .cls-3 {
        fill: #294351;
      }

      .cls-2 {
        fill: #e8563c;
      }

      .cls-4 {
        fill: #fff;
      }
    </style>
  </defs>
  <g id="Calque_1-2" data-name="Calque 1">
    <g>
      <g>
        <circle class="cls-4" cx="33.87" cy="84.85" r="10.68"/>
        <path class="cls-2" d="m33.87,97.57c-7.01,0-12.72-5.71-12.72-12.72s5.71-12.72,12.72-12.72,12.72,5.71,12.72,12.72-5.71,12.72-12.72,12.72Zm0-21.37c-4.77,0-8.65,3.88-8.65,8.65s3.88,8.65,8.65,8.65,8.65-3.88,8.65-8.65-3.88-8.65-8.65-8.65Z"/>
      </g>
      <g>
        <path class="cls-4" d="m27.94,129.61l19.79-15.38c1.12-.88,2.68-.99,3.91-.27l15.22,8.88c.95.56,2.16.37,2.91-.44l20.91-22.77c1.28-1.4,3.49-1.38,4.75.04l18.32,20.49"/>
        <path class="cls-2" d="m29.19,131.21l-2.5-3.22,19.79-15.38c1.79-1.4,4.22-1.57,6.19-.42l15.22,8.88c.12.07.28.05.38-.06l20.91-22.77c.99-1.08,2.39-1.7,3.86-1.7h.04c1.48.01,2.89.66,3.88,1.76l18.31,20.48-3.04,2.71-18.32-20.49c-.3-.34-.67-.4-.87-.4-.19.02-.56.05-.87.38l-20.91,22.77c-1.38,1.51-3.67,1.85-5.43.82l-15.21-8.88c-.52-.3-1.16-.26-1.63.11l-19.8,15.39Z"/>
      </g>
      <circle class="cls-2" cx="276.13" cy="68.2" r="4.84"/>
      <g>
        <circle class="cls-4" cx="295.35" cy="36.39" r="8.62"/>
        <path class="cls-2" d="m295.36,47.04c-4.54,0-8.76-2.93-10.18-7.5h0c-1.74-5.61,1.41-11.59,7.02-13.33s11.59,1.41,13.33,7.02c1.74,5.61-1.41,11.59-7.02,13.33-1.05.32-2.11.48-3.15.48Zm-6.29-8.7c1.08,3.46,4.77,5.41,8.23,4.33,3.46-1.08,5.41-4.77,4.33-8.24-1.08-3.46-4.77-5.41-8.24-4.33-3.46,1.07-5.41,4.77-4.33,8.23h0Z"/>
      </g>
      <g>
        <circle class="cls-4" cx="380.05" cy="98.59" r="16.32"/>
        <path class="cls-2" d="m380.07,116.95c-7.83,0-15.1-5.06-17.54-12.92h0c-3-9.67,2.42-19.97,12.09-22.98,9.67-3,19.97,2.42,22.98,12.09,1.45,4.68,1,9.65-1.29,13.99-2.28,4.34-6.12,7.53-10.8,8.98-1.8.56-3.63.83-5.43.83Zm-13.65-14.12c2.33,7.52,10.35,11.75,17.88,9.41,3.64-1.13,6.63-3.61,8.41-6.99,1.78-3.38,2.13-7.24,1-10.89-1.13-3.64-3.61-6.63-6.99-8.41-3.38-1.78-7.24-2.13-10.89-1-7.52,2.33-11.74,10.36-9.41,17.88h0Z"/>
      </g>
      <g>
        <path class="cls-3" d="m274.71,38.43c-1.03,0-1.9-.79-1.98-1.84-.08-1.09.74-2.04,1.83-2.13.96-.07,1.53-.07,1.59-.06,1.1.02,1.97.92,1.95,2.02-.02,1.08-.9,1.95-1.98,1.95-.02,0-.02,0-.07,0-.12,0-.54,0-1.2.05-.05,0-.1,0-.15,0Z"/>
        <path class="cls-3" d="m249.92,50.19c-.51,0-1.02-.2-1.41-.59-.77-.78-.76-2.04.01-2.81.59-.58,1.18-1.14,1.78-1.67.82-.73,2.07-.65,2.8.17.73.82.65,2.07-.17,2.8-.54.48-1.08.99-1.62,1.52-.39.38-.89.57-1.4.57Zm11.38-8.04c-.74,0-1.45-.42-1.79-1.13-.47-.99-.05-2.17.93-2.65.73-.35,1.48-.68,2.23-.99,1.01-.42,2.17.07,2.59,1.08.42,1.01-.07,2.17-1.08,2.59-.66.27-1.34.57-2.03.9-.28.13-.57.19-.85.19Z"/>
        <path class="cls-3" d="m242,60.57c-.34,0-.68-.08-.99-.26-.95-.55-1.28-1.76-.73-2.71.25-.43.5-.85.75-1.27.57-.93,1.79-1.22,2.73-.66.93.57,1.23,1.79.65,2.73-.23.38-.46.77-.69,1.17-.37.64-1.04,1-1.72,1Z"/>
      </g>
      <path class="cls-3" d="m129.2,156.7H8.84c-4.88,0-8.84-3.97-8.84-8.84V59.54c0-4.88,3.97-8.84,8.84-8.84h49.56c1.12,0,2.04.91,2.04,2.04s-.91,2.04-2.04,2.04H8.84c-2.63,0-4.77,2.14-4.77,4.77v88.31c0,2.63,2.14,4.77,4.77,4.77h120.36c2.63,0,4.77-2.14,4.77-4.77v-22.46c0-1.12.91-2.04,2.04-2.04s2.04.91,2.04,2.04v22.46c0,4.88-3.97,8.84-8.84,8.84Z"/>
      <path class="cls-2" d="m187.93,225.49c-.11,0-.21,0-.32,0-3.79-.17-6.72-3.4-6.55-7.18.18-3.79,3.39-6.73,7.18-6.55,1.83.08,3.53.88,4.76,2.23s1.87,3.11,1.79,4.95c-.08,1.83-.88,3.53-2.23,4.76-1.28,1.16-2.91,1.8-4.62,1.8Zm0-9.67c-1.49,0-2.73,1.17-2.8,2.67-.07,1.54,1.13,2.85,2.67,2.92.76.04,1.46-.22,2.01-.73.55-.5.88-1.19.91-1.94.03-.75-.22-1.46-.73-2.02s-1.19-.88-1.94-.91c-.04,0-.09,0-.13,0Z"/>
      <g>
        <path class="cls-3" d="m234.14,164.06c-.65,0-1.29-.32-1.67-.91-.57-.89-.81-1.45-.85-1.56-.41-1.02.08-2.17,1.09-2.59,1.01-.41,2.16.07,2.58,1.07.01.03.17.37.52.93.59.92.32,2.15-.6,2.74-.33.21-.7.31-1.07.31Z"/>
        <path class="cls-3" d="m261.89,180.16c-.17,0-.34-.02-.51-.07-1.11-.3-2.18-.6-3.21-.91-1.05-.32-1.64-1.43-1.32-2.47.32-1.05,1.43-1.64,2.47-1.32.99.3,2.02.59,3.08.88,1.06.28,1.69,1.37,1.41,2.43-.24.89-1.04,1.47-1.92,1.47Zm-15.28-5.77c-.31,0-.63-.07-.92-.23-1.03-.54-2.02-1.11-2.96-1.68-.93-.57-1.23-1.79-.66-2.73.57-.94,1.79-1.23,2.73-.66.86.53,1.78,1.05,2.73,1.55.97.51,1.34,1.71.83,2.68-.36.67-1.04,1.06-1.76,1.06Z"/>
        <path class="cls-3" d="m276.13,182.97c-.09,0-.18,0-.28-.02-.48-.07-.95-.13-1.42-.2-1.08-.16-1.83-1.17-1.67-2.25.16-1.08,1.18-1.84,2.25-1.67.46.07.92.13,1.38.2,1.08.15,1.84,1.15,1.69,2.24-.14.99-.99,1.71-1.96,1.71Z"/>
      </g>
      <path class="cls-2" d="m105.34,191.24c-1.09,0-2.2-.16-3.3-.5-5.87-1.82-9.17-8.08-7.34-13.96.88-2.84,2.82-5.17,5.46-6.56,2.63-1.39,5.66-1.67,8.5-.78,2.84.88,5.17,2.82,6.56,5.46,1.39,2.63,1.67,5.65.78,8.5-1.48,4.78-5.9,7.85-10.66,7.85Zm0-18.23c-1.13,0-2.26.28-3.29.82-1.67.88-2.9,2.36-3.46,4.16-1.16,3.73.93,7.7,4.66,8.86,3.73,1.16,7.7-.93,8.86-4.66h0c.56-1.81.38-3.72-.5-5.39-.88-1.67-2.36-2.9-4.16-3.46-.69-.22-1.4-.32-2.11-.32Z"/>
      <g>
        <path class="cls-3" d="m76.57,72.79c-.4,0-.8-.12-1.15-.37-.89-.64-1.1-1.87-.46-2.76.04-.05.36-.51,1-1.24.71-.83,1.97-.93,2.8-.21.83.71.93,1.97.21,2.8-.49.57-.75.93-.78.96-.39.54-1,.83-1.62.83Z"/>
        <path class="cls-3" d="m137.64,63.63c-.27,0-.54-.05-.79-.17-.83-.36-1.64-.7-2.45-1.03-1.02-.41-1.51-1.56-1.1-2.58s1.56-1.51,2.58-1.1c.84.34,1.7.7,2.56,1.07,1,.44,1.46,1.61,1.02,2.61-.33.75-1.05,1.19-1.82,1.19Zm-49.67-.43c-.69,0-1.36-.36-1.73-1-.54-.95-.21-2.16.74-2.71.82-.47,1.66-.91,2.51-1.33.98-.48,2.17-.07,2.65.91.48.98.07,2.17-.91,2.65-.77.38-1.54.79-2.29,1.21-.31.18-.65.26-.98.26Zm34.21-4.59c-.13,0-.27-.01-.4-.04-.88-.18-1.74-.34-2.58-.47-1.08-.17-1.82-1.19-1.64-2.27.17-1.08,1.19-1.83,2.27-1.64.9.14,1.82.31,2.76.5,1.07.22,1.76,1.27,1.54,2.34-.19.94-1.02,1.58-1.94,1.58Zm-18.9-.68c-.96,0-1.81-.71-1.96-1.69-.16-1.08.58-2.09,1.67-2.26.93-.14,1.88-.25,2.81-.34,1.11-.11,2.06.7,2.16,1.79.1,1.09-.7,2.06-1.79,2.16-.86.08-1.73.18-2.58.31-.1.02-.2.02-.3.02Z"/>
        <path class="cls-3" d="m150.92,70.6c-.35,0-.71-.09-1.03-.29-.4-.24-.8-.48-1.2-.72-.94-.56-1.25-1.78-.69-2.72.56-.94,1.78-1.25,2.72-.69.41.24.82.49,1.23.74.94.57,1.23,1.79.66,2.73-.37.61-1.03.95-1.7.95Z"/>
      </g>
      <path class="cls-3" d="m203.64,185.29c-.59,0-1.14-.25-1.53-.69-7.95-9.05-15.41-18.7-22.16-28.68-10.2-15.11-22.35-36.8-22.35-54.39-.01-25.39,20.63-46.05,46.02-46.06h.02c12.31,0,23.87,4.79,32.57,13.5,8.6,8.56,13.51,20.43,13.47,32.57,0,17.59-12.15,39.28-22.35,54.37-6.75,9.98-14.21,19.64-22.16,28.69-.39.44-.94.69-1.53.69Zm0-125.75h-.02c-23.14.01-41.96,18.85-41.95,41.99,0,16.56,11.78,37.47,21.65,52.11,6.22,9.19,13.05,18.1,20.31,26.52,7.27-8.42,14.09-17.33,20.31-26.53,9.88-14.62,21.65-35.52,21.65-52.09.04-11.06-4.44-21.88-12.27-29.68-7.93-7.94-18.48-12.31-29.69-12.31Z"/>
      <g>
        <path id="_Color" data-name=" Color" class="cls-4" d="m203.64,86.17c-8.68,0-15.72,7.04-15.72,15.72s7.04,15.72,15.72,15.72,15.72-7.04,15.72-15.72-7.04-15.72-15.72-15.72Z"/>
        <path class="cls-2" d="m203.64,119.64c-9.79,0-17.75-7.96-17.75-17.75s7.96-17.75,17.75-17.75,17.75,7.96,17.75,17.75-7.96,17.75-17.75,17.75Zm0-31.43c-7.54,0-13.68,6.14-13.68,13.68s6.14,13.68,13.68,13.68,13.68-6.14,13.68-13.68-6.14-13.68-13.68-13.68Z"/>
      </g>
      <g>
        <path class="cls-2" d="m330.82,155.58h0c1.28,0,2.32,1.04,2.32,2.32v14.11s-.02.04-.04.04h-4.44c-.09,0-.17-.08-.17-.17v-13.99c0-1.28,1.04-2.32,2.32-2.32Z" transform="translate(99.43 -123.82) rotate(24.84)"/>
        <path class="cls-1" d="m298.31,136.56c2.28-.91,4.92-.94,7.37.12,4.92,2.12,7.16,7.75,5.05,12.66-2.12,4.92-7.78,7.16-12.7,5.04-4.91-2.11-7.15-7.77-5.03-12.67,1.06-2.46,3.02-4.24,5.31-5.15Zm-1.32-3.31c-3.15,1.25-5.82,3.7-7.27,7.05-2.9,6.68.2,14.5,6.89,17.39,6.7,2.89,14.52-.22,17.41-6.91,2.88-6.69-.21-14.5-6.92-17.39-3.35-1.44-6.97-1.39-10.12-.14Z"/>
        <path class="cls-3" d="m290.7,203.83l6.72,8.58-.98,4.57-12.8,19c-.89,1.31-1.74,1.86-2.71,2.01-.98.16-2.08-.13-2.99-.74-.92-.62-1.74-1.51-1.82-2.49-.12-1.52.24-2.37.9-3.35l12.2-18.1c.15-.23.24-.49.28-.76l1.21-8.71Zm5.14-39.35c2.2,0,4.31.65,5.28,1.68l9.74,10.39c.54.58,1.42.74,2.14.37l10.12-5.26c1.26-.66,2.49-.81,3.78.3.68.59,1.11,1.52,1.11,2.8,0,.96-.49,1.75-1.85,2.46l-13.58,7.07c-1.27.66-2.81.39-3.78-.65l-5.48-5.85c-1.1-1.17-3.08-.39-3.09,1.21l-.08,17.36c0,.4.13.8.38,1.11l11.35,14.48c.44.58.72,1.25.82,1.83l3.14,19.22c.24,1.47-.11,2.43-.72,3.17-.61.75-1.56,1.28-2.6,1.45-1.05.16-2.14-.03-2.95-.54-.82-.51-1.45-1.31-1.69-2.79l-2.9-17.72c-.04-.3-.16-.58-.35-.82l-14.86-18.95c-.59-.77-.95-1.47-.95-2.59v-24.95c0-1.2.44-2.05,1.28-2.83.84-.77,2.12-1.39,3.55-1.71.72-.16,1.46-.24,2.2-.24Zm25.14,4.24c-4,2.07-8.44,4.38-8.44,4.38l-8.79-9.39c-2.65-2.83-7.04-3.36-10.89-2.49-1.93.44-3.77,1.26-5.2,2.6-1.44,1.33-2.43,3.25-2.43,5.45v24.95c0,2,.79,3.62,1.7,4.8l.69.87-1.62,11.76-11.91,17.67c-1.51,1.99-1.94,4.29-1.48,6.25s1.72,3.59,3.31,4.65c1.59,1.07,3.55,1.62,5.55,1.31,2-.31,3.94-1.57,5.23-3.7l12.92-19.12c.13-.2.22-.41.26-.63l.42-1.97,1.19,1.52,2.83,17.27c.39,2.36,1.67,4.19,3.32,5.24,1.65,1.05,3.6,1.34,5.43,1.05,1.83-.3,3.6-1.2,4.82-2.72,1.24-1.51,1.85-3.67,1.46-6.03l-3.14-19.21c-.21-1.27-.74-2.46-1.53-3.47l-10.96-13.98.06-12.2,2.38,2.56c2.06,2.21,5.37,2.77,8.05,1.38l13.5-7.02c4.22-2.19,5.04-6.18,2.81-9.78,0,0-2.79-5.17-9.55-1.97Z"/>
      </g>
      <g>
        <path class="cls-3" d="m54.5,193.2c-1.25,0-2.26-1.01-2.26-2.26v-15.38c0-1.25,1.01-2.26,2.26-2.26s2.26,1.01,2.26,2.26v15.38c0,1.25-1.01,2.26-2.26,2.26Z"/>
        <path class="cls-3" d="m62.2,185.51h-15.38c-1.25,0-2.26-1.01-2.26-2.26s1.01-2.26,2.26-2.26h15.38c1.25,0,2.26,1.01,2.26,2.26s-1.01,2.26-2.26,2.26Z"/>
      </g>
      <g>
        <path class="cls-3" d="m313.99,108.55c-1.25,0-2.26-1.01-2.26-2.26v-15.38c0-1.25,1.01-2.26,2.26-2.26s2.26,1.01,2.26,2.26v15.38c0,1.25-1.01,2.26-2.26,2.26Z"/>
        <path class="cls-3" d="m321.68,100.85h-15.38c-1.25,0-2.26-1.01-2.26-2.26s1.01-2.26,2.26-2.26h15.38c1.25,0,2.26,1.01,2.26,2.26s-1.01,2.26-2.26,2.26Z"/>
      </g>
      <g>
        <path class="cls-3" d="m394.29,203.16c-1.25,0-2.26-1.01-2.26-2.26v-15.38c0-1.25,1.01-2.26,2.26-2.26s2.26,1.01,2.26,2.26v15.38c0,1.25-1.01,2.26-2.26,2.26Z"/>
        <path class="cls-3" d="m401.98,195.47h-15.38c-1.25,0-2.26-1.01-2.26-2.26s1.01-2.26,2.26-2.26h15.38c1.25,0,2.26,1.01,2.26,2.26s-1.01,2.26-2.26,2.26Z"/>
      </g>
      <g>
        <path class="cls-3" d="m136.01,19.91c-1.25,0-2.26-1.01-2.26-2.26V2.26c0-1.25,1.01-2.26,2.26-2.26s2.26,1.01,2.26,2.26v15.38c0,1.25-1.01,2.26-2.26,2.26Z"/>
        <path class="cls-3" d="m143.7,12.22h-15.38c-1.25,0-2.26-1.01-2.26-2.26s1.01-2.26,2.26-2.26h15.38c1.25,0,2.26,1.01,2.26,2.26s-1.01,2.26-2.26,2.26Z"/>
      </g>
    </g>
  </g>
</svg>